<svg id="Blockchain" xmlns="http://www.w3.org/2000/svg" viewBox="0 0 1924.4 1080.94"><defs><style>.cls-1{fill:#2f4858;}.cls-2{fill:#4780a5;}.cls-3{fill:#3f5381;}</style></defs><rect class="cls-1" y="0.47" width="1920" height="1080"/><path class="cls-2" d="M250.12,1041.78l-121.73-27.39,0-.44,12.13-122.3Zm-120.65-28.17,118.27,26.61L141.3,894.35Z" transform="translate(0 0.47)"/><path class="cls-2" d="M419.31,890.63l-.16-.21-43.24-58.87,109.8,57.61Zm-40-56.18,40.53,55.17,62-1.38Z" transform="translate(0 0.47)"/><path class="cls-2" d="M434.77,1052.21,419,889.64l64.91-1.44.13.09,84.39,59-.53.42Zm-14.66-161.6,15.48,159.68L566.76,947.36,483.61,889.2Z" transform="translate(0 0.47)"/><polygon class="cls-2" points="567.76 948.4 567.42 948.27 419.38 891.06 419.74 890.13 567.44 947.21 726.62 747.51 484.02 889.6 483.51 888.74 730.75 743.93 567.76 948.4"/><polygon class="cls-2" points="483.34 889.43 353.07 671.18 378.09 833.39 377.1 833.55 351.3 666.26 484.19 888.91 483.34 889.43"/><path class="cls-2" d="M64.31,552.52l-21-115.36h.46L215.4,324.51,266.88,441.3l95.4,45.75-.43.9-95.34-45.72ZM44.53,438.18,65.05,551,264.6,442.13Zm1-1,220.17,3.95L215,326Z" transform="translate(0 0.47)"/><path class="cls-2" d="M348,193.86,186.67,147.64l225-119Zm-158.65-46.5,158,45.28L409.77,30.77Z" transform="translate(0 0.47)"/><path class="cls-2" d="M555.23,338.56l0-.75L565.5,112.39l115,181Zm11.13-222.95L556.3,337.11,679,292.91Z" transform="translate(0 0.47)"/><path class="cls-2" d="M850.55,218l-81.89-28.76-78.59-67.11L565.9,114.5l.06-1,124.5,7.68,78.49,67L882,71.4Zm-80.66-29.35,79.92,28L880.33,74.6Z" transform="translate(0 0.47)"/><path class="cls-2" d="M737.2,704.36l-61.82-88.87,0,.46L594.74,443.8h0l-.14-.36-.92-2,.27.22L555.21,337.78l.13-.21L690.88,119.72,680.26,293.2l-1-.06,10.38-169.53L556.32,337.89l39,104.81,195-28.42L685.27,516.9ZM675.53,614l59.14,85L684.94,519.46ZM596.42,445,674.7,612.24,684.19,517Zm-.19-1.45,88.45,72.5,102.8-100.36Z" transform="translate(0 0.47)"/><polygon class="cls-2" points="929.55 343.08 849.76 218.11 850.6 217.58 927.69 338.3 880.69 73.56 881.67 73.38 929.55 343.08"/><path class="cls-2" d="M890.34,513.78l-99-2.3-1.12.28.18-.3h-.14l.61-.77L892.73,344.3,788,416.23l62.12-200.44,44.48,126,1.4-1-.72,1.18,33.28-2.27,0,.44.44.3L841.18,498.53Zm-95.25-3.21,88.11,2-42.77-13.26ZM925.33,345.11l-132.68,165,47.47-11.74ZM894.67,343,795.83,504.59,927.51,340.8ZM850.21,219,789.84,413.77l103.94-71.41Z" transform="translate(0 0.47)"/><path class="cls-2" d="M1121.69,771.81l-.15-.16L825.38,746.53l-.53,2L790.66,509.81l79.81,62.85,15.72-59.25-1.08-.73h1.27l41.87-173.06.21,0L1055.84,212l.35.37,184.06,194.86.29-.08,0,.43,1,1.05-.91-.2,11.19,108.88h-.56l-362.87-3.54,312.42,210.48-.67.41-77.52,46.62.74.59-1.5-.13ZM825.64,745.55l294.52,25L871.05,574.38Zm64.3-229.61,231.93,254.59L1199,724.14Zm-18.61,57.39,246,193.7L887,514.21ZM792,512.15,825.15,743.5,870.2,573.71Zm98.07.58,360.67,3.51L1239.67,408.4ZM929,340.81,887.46,512.47,1238.1,407.83Zm.63-.89,309,67L1055.82,213.38Z" transform="translate(0 0.47)"/><polygon class="cls-2" points="1201.25 724.12 1200.69 723.83 791.1 511.89 791.57 511.01 1200.59 722.65 1250.82 517.1 1251.79 517.34 1201.25 724.12"/><path class="cls-2" d="M1194.72,996l-66.6-91.91L994.26,979.3,994,979,862.51,826.28l0-.07-37.86-79.84-88.91-44.26.44-.89,89.23,44.41.07.16,37.9,79.93L994.49,978,1128,903l55.6-49.75Zm-65.79-92.49,64.52,89-10.72-137.17Z" transform="translate(0 0.47)"/><path class="cls-2" d="M1557.29,870.93l-.54-.14-295.9-75.36-77.39,59.3-.61-.79,77.55-59.42,191.24-212.45-4.87-112.63.79.47L1726.1,633.26l-2.79-.52-267.06-49.22,114,50.35-100,69.93,99.48,86.69Zm-295-76.17,294.2,74.93,12.18-78.81-99.31-86.54ZM1451.8,583.39,1262.65,793.51l206.23-90.06Zm1-.31,17,119.8,98.36-68.82Zm-.14-1.24,268.06,49.4-272.84-160Z" transform="translate(0 0.47)"/><path class="cls-2" d="M1788.94,1048.85l-.67-144.5-118.62-42-23.57,27.95-12.8-16.44-49,15.66-15.8-99.92.18.13V634.13L1446.91,470.64l.8-.6,122,163.76V790.43l99.9,70.77,1.42-.45-.66.77,118.31,41.91L1901.88,801l-64,141.16,58.69,46.33-.66.37Zm48.56-105.73-47,103.7,104.29-58.45ZM1789.27,905l.65,140.67,46.77-103.23Zm.27-1.07,47.58,37.57L1899,805ZM1634.3,873.53l11.81,15.18,21.88-26Zm-64.32-81,15.13,95.67L1632.63,873Zm1.68.52,62,79.64,34.75-11.11Z" transform="translate(0 0.47)"/><path class="cls-2" d="M1552.89,1065.52l31.18-176L1194.13,994.79h-.08L994.73,979.2l-27,84.78-1-.3L994,978.14l.4,0L1194,993.78l389.47-105.12-26.91-17.94.55-.83,27.64,18.42.54-.14,0,.19,61.63.65-.39.73Zm32.23-176.16L1555,1059.48,1645.27,890Z" transform="translate(0 0.47)"/><rect class="cls-2" x="1260.68" y="957.53" width="1" height="159.22" transform="translate(-291.81 1542.06) rotate(-57.43)"/><polygon class="cls-2" points="1896.21 988.93 1895.21 988.9 1899.92 803.79 1755.11 741.09 1669.9 862.51 1669.09 861.93 1754.76 739.85 1755.13 740.01 1900.94 803.14 1900.93 803.48 1896.21 988.93"/><path class="cls-2" d="M1569.19,634.46v-1l154-1.71,68.64-60.45-340.54,11.49,88.3-170.44-.52-.33,133.07-42.62,121.44,201,1.28.8-1.45,0-69.84,61.51h-.19Zm-28.73-221.58L1453,581.73l338.59-11.42Zm1-.57,250.28,156.9-120-198.61Z" transform="translate(0 0.47)"/><path class="cls-2" d="M1251.42,517.24l-.23-1,195.63-46.32,4.83-141.47-71.29,16.67-.25.14,0,0-140.24,63.17-.19-.48L1120.89,115.23l-65.72,99.33,11.53-143.7.43,0L1272.46,59l-1.58-1.48,2.88,1.41,3.32-.19-2.14.77,182.39,89.15.07.19,45.7,124.55.4.38-.51.3-50.33,54-4.87,142.7ZM1122.26,116l118.11,291.12,138.89-62.55Zm-.3-1.61,258.27,229.7,59.28-34.35L1273.45,60Zm318.1,196.18-56.76,32.9,68.06-15.92Zm.87-.5,11.31,17L1500,275.79ZM1276.45,62.72l163.92,246.47,61.47-35.62Zm0-1.39,225,210.54-45-122.51ZM1067.62,71.81l-11.14,139,63.86-96.52L1120,114l.64-.23.43-.65.18.43,148.94-53.41Z" transform="translate(0 0.47)"/><polygon class="cls-2" points="1851.16 159.02 1850.85 158.96 1768.85 145.46 1769.01 144.48 1850.7 157.93 1904.49 78.7 1768.05 142.97 1463.44 149.97 1463.42 148.97 1767.82 141.97 1907.37 76.24 1851.16 159.02"/><rect class="cls-2" x="839.06" y="-18.86" width="1" height="110.72" transform="translate(258.59 644.15) rotate(-48.75)"/><rect class="cls-2" x="1261.62" y="29.21" width="85.35" height="1" transform="translate(347.42 917) rotate(-44.13)"/><rect class="cls-2" x="1190.79" y="-57.85" width="1" height="175.11" transform="translate(759.13 1140.72) rotate(-70.17)"/><rect class="cls-2" x="359.98" y="464.88" width="237.14" height="1" transform="translate(-78.44 97.95) rotate(-10.75)"/><rect class="cls-2" x="336.52" y="412.17" width="244.79" height="1" transform="matrix(0.79, -0.61, 0.61, 0.79, -156.55, 367.29)"/><polygon class="cls-2" points="1672.18 370.9 1671.68 370.04 1821.68 284.54 1901.04 254.09 1923.46 190.3 1924.4 190.64 1901.83 254.85 1901.61 254.94 1822.11 285.44 1672.18 370.9"/><polygon class="cls-2" points="1852.37 397.65 1822.45 287.6 1823.41 287.34 1852.49 394.29 1900.96 255.81 1901.9 256.13 1852.37 397.65"/><path class="cls-2" d="M128.93,1011c3.86,0,3.87,6,0,6s-3.87-6,0-6Z" transform="translate(0 0.47)"/><path class="cls-2" d="M128.93,1018.5a4.31,4.31,0,0,1-4.4-4.5,4.64,4.64,0,0,1,1.09-3,4.47,4.47,0,1,1,3.31,7.54Zm0-6a1.38,1.38,0,0,0-1.4,1.5,1.66,1.66,0,0,0,.37,1.08,1.28,1.28,0,0,0,1,.42,1.31,1.31,0,0,0,1-.41,1.7,1.7,0,0,0,.36-1.09A1.38,1.38,0,0,0,128.93,1012.5Z" transform="translate(0 0.47)"/><path class="cls-2" d="M248.93,1037c5.15,0,5.16,8,0,8s-5.15-8,0-8Z" transform="translate(0 0.47)"/><path class="cls-2" d="M248.93,1046.5a5.26,5.26,0,0,1-5.36-5.5,5.69,5.69,0,0,1,1.33-3.73,5.21,5.21,0,0,1,4-1.77,5.27,5.27,0,0,1,5.37,5.5,5.74,5.74,0,0,1-1.33,3.73A5.23,5.23,0,0,1,248.93,1046.5Zm0-8a2.19,2.19,0,0,0-1.76.73,2.74,2.74,0,0,0-.6,1.77,2.34,2.34,0,0,0,2.36,2.5,2.17,2.17,0,0,0,1.76-.73,2.69,2.69,0,0,0,.61-1.77A2.35,2.35,0,0,0,248.93,1038.5Z" transform="translate(0 0.47)"/><path class="cls-2" d="M140.93,890c3.86,0,3.87,6,0,6s-3.87-6,0-6Z" transform="translate(0 0.47)"/><path class="cls-2" d="M140.93,897.5a4.31,4.31,0,0,1-4.4-4.5,4.64,4.64,0,0,1,1.09-3,4.47,4.47,0,1,1,3.31,7.54Zm0-6a1.38,1.38,0,0,0-1.4,1.5,1.66,1.66,0,0,0,.37,1.08,1.28,1.28,0,0,0,1,.42,1.31,1.31,0,0,0,1-.41,1.7,1.7,0,0,0,.36-1.09A1.38,1.38,0,0,0,140.93,891.5Z" transform="translate(0 0.47)"/><path class="cls-2" d="M435.18,1046.25c6.44,0,6.45,10,0,10s-6.44-10,0-10Z" transform="translate(0 0.47)"/><path class="cls-2" d="M435.18,1057.75a6.22,6.22,0,0,1-6.33-6.5,6.78,6.78,0,0,1,1.57-4.42,6.07,6.07,0,0,1,4.76-2.08,6.22,6.22,0,0,1,6.33,6.5,6.78,6.78,0,0,1-1.57,4.42A6.07,6.07,0,0,1,435.18,1057.75Zm0-10a3.09,3.09,0,0,0-2.48,1,3.78,3.78,0,0,0-.85,2.46,3.27,3.27,0,0,0,3.33,3.5,3.13,3.13,0,0,0,2.49-1,3.83,3.83,0,0,0,.84-2.46A3.27,3.27,0,0,0,435.18,1047.75Z" transform="translate(0 0.47)"/><path class="cls-2" d="M419.56,886.12c5.14,0,5.15,8,0,8s-5.16-8,0-8Z" transform="translate(0 0.47)"/><path class="cls-2" d="M419.56,895.62a5.27,5.27,0,0,1-5.37-5.5,5.66,5.66,0,0,1,1.33-3.72,5.2,5.2,0,0,1,4-1.78,5.27,5.27,0,0,1,5.36,5.51,5.66,5.66,0,0,1-1.33,3.72A5.17,5.17,0,0,1,419.56,895.62Zm0-8a2.2,2.2,0,0,0-1.76.73,2.71,2.71,0,0,0-.61,1.77,2.35,2.35,0,0,0,2.37,2.5,2.22,2.22,0,0,0,1.76-.72,2.76,2.76,0,0,0,.6-1.77A2.35,2.35,0,0,0,419.56,887.62Z" transform="translate(0 0.47)"/><path class="cls-2" d="M483.77,885.2c4.5,0,4.51,7,0,7s-4.52-7,0-7Z" transform="translate(0 0.47)"/><path class="cls-2" d="M483.77,893.7a4.8,4.8,0,0,1-4.89-5,5.14,5.14,0,0,1,1.21-3.38,4.73,4.73,0,0,1,3.68-1.62,4.79,4.79,0,0,1,4.88,5,5.14,5.14,0,0,1-1.21,3.38A4.73,4.73,0,0,1,483.77,893.7Zm0-7a1.73,1.73,0,0,0-1.4.57,2.21,2.21,0,0,0-.49,1.43,1.88,1.88,0,0,0,1.89,2,1.72,1.72,0,0,0,1.39-.57,2.21,2.21,0,0,0,.49-1.43A1.88,1.88,0,0,0,483.77,886.7Z" transform="translate(0 0.47)"/><path class="cls-2" d="M567.6,943.33c5.15,0,5.15,8,0,8s-5.16-8,0-8Z" transform="translate(0 0.47)"/><path class="cls-2" d="M567.6,952.83a5.27,5.27,0,0,1-5.37-5.5,5.74,5.74,0,0,1,1.33-3.73,5.4,5.4,0,0,1,9.4,3.73,5.69,5.69,0,0,1-1.33,3.73A5.21,5.21,0,0,1,567.6,952.83Zm0-8a2.2,2.2,0,0,0-1.76.73,2.71,2.71,0,0,0-.61,1.77,2.35,2.35,0,0,0,2.37,2.5,2.22,2.22,0,0,0,1.76-.72,2.79,2.79,0,0,0,.6-1.78A2.34,2.34,0,0,0,567.6,944.83Z" transform="translate(0 0.47)"/><path class="cls-2" d="M377.6,829c5.15,0,5.15,8,0,8s-5.16-8,0-8Z" transform="translate(0 0.47)"/><path class="cls-2" d="M377.6,838.5a5.27,5.27,0,0,1-5.37-5.5,5.74,5.74,0,0,1,1.33-3.73A5.4,5.4,0,0,1,383,833a5.69,5.69,0,0,1-1.33,3.73A5.21,5.21,0,0,1,377.6,838.5Zm0-8a2.17,2.17,0,0,0-1.76.73,2.69,2.69,0,0,0-.61,1.77,2.35,2.35,0,0,0,2.37,2.5,2.19,2.19,0,0,0,1.76-.73A2.74,2.74,0,0,0,380,833,2.34,2.34,0,0,0,377.6,830.5Z" transform="translate(0 0.47)"/><path class="cls-2" d="M352.18,664.25c5.15,0,5.16,8,0,8s-5.15-8,0-8Z" transform="translate(0 0.47)"/><path class="cls-2" d="M352.18,673.75a5.26,5.26,0,0,1-5.36-5.5,5.69,5.69,0,0,1,1.33-3.73,5.21,5.21,0,0,1,4-1.77,5.27,5.27,0,0,1,5.37,5.5,5.74,5.74,0,0,1-1.33,3.73A5.23,5.23,0,0,1,352.18,673.75Zm0-8a2.19,2.19,0,0,0-1.76.73,2.74,2.74,0,0,0-.6,1.77,2.34,2.34,0,0,0,2.36,2.5,2.17,2.17,0,0,0,1.76-.73,2.69,2.69,0,0,0,.61-1.77A2.35,2.35,0,0,0,352.18,665.75Z" transform="translate(0 0.47)"/><path class="cls-2" d="M728.68,741.25c5.15,0,5.16,8,0,8s-5.15-8,0-8Z" transform="translate(0 0.47)"/><path class="cls-2" d="M728.68,750.75a5.26,5.26,0,0,1-5.36-5.5,5.69,5.69,0,0,1,1.33-3.73,5.21,5.21,0,0,1,4-1.77,5.27,5.27,0,0,1,5.37,5.5,5.74,5.74,0,0,1-1.33,3.73A5.23,5.23,0,0,1,728.68,750.75Zm0-8a2.19,2.19,0,0,0-1.76.73,2.74,2.74,0,0,0-.6,1.77,2.34,2.34,0,0,0,2.36,2.5,2.17,2.17,0,0,0,1.76-.73,2.69,2.69,0,0,0,.61-1.77A2.35,2.35,0,0,0,728.68,742.75Z" transform="translate(0 0.47)"/><path class="cls-2" d="M43.93,433.67c5.15,0,5.16,8,0,8s-5.15-8,0-8Z" transform="translate(0 0.47)"/><path class="cls-2" d="M43.93,443.17a5.27,5.27,0,0,1-5.36-5.51,5.68,5.68,0,0,1,1.33-3.72,5.21,5.21,0,0,1,4-1.77,5.27,5.27,0,0,1,5.37,5.5A5.76,5.76,0,0,1,48,441.4,5.23,5.23,0,0,1,43.93,443.17Zm0-8a2.22,2.22,0,0,0-1.76.72,2.76,2.76,0,0,0-.6,1.77,2.35,2.35,0,0,0,2.36,2.51,2.2,2.2,0,0,0,1.76-.73,2.71,2.71,0,0,0,.61-1.77A2.35,2.35,0,0,0,43.93,435.17Z" transform="translate(0 0.47)"/><path class="cls-2" d="M215.18,321.75c4.51,0,4.51,7,0,7s-4.51-7,0-7Z" transform="translate(0 0.47)"/><path class="cls-2" d="M215.18,330.25a4.79,4.79,0,0,1-4.88-5,5.14,5.14,0,0,1,1.21-3.38,4.71,4.71,0,0,1,3.67-1.62,4.79,4.79,0,0,1,4.88,5,5.19,5.19,0,0,1-1.2,3.38A4.73,4.73,0,0,1,215.18,330.25Zm0-7a1.76,1.76,0,0,0-1.4.57,2.26,2.26,0,0,0-.48,1.43,1.87,1.87,0,0,0,1.88,2,1.76,1.76,0,0,0,1.4-.57,2.2,2.2,0,0,0,.48-1.43A1.87,1.87,0,0,0,215.18,323.25Z" transform="translate(0 0.47)"/><path class="cls-2" d="M64.68,548.25c4.51,0,4.51,7,0,7s-4.51-7,0-7Z" transform="translate(0 0.47)"/><path class="cls-2" d="M64.68,556.75a4.79,4.79,0,0,1-4.88-5A5.14,5.14,0,0,1,61,548.37a4.71,4.71,0,0,1,3.67-1.62,4.79,4.79,0,0,1,4.88,5,5.19,5.19,0,0,1-1.2,3.38A4.73,4.73,0,0,1,64.68,556.75Zm0-7a1.76,1.76,0,0,0-1.4.57,2.26,2.26,0,0,0-.48,1.43,1.87,1.87,0,0,0,1.88,2,1.76,1.76,0,0,0,1.4-.57,2.2,2.2,0,0,0,.48-1.43A1.87,1.87,0,0,0,64.68,549.75Z" transform="translate(0 0.47)"/><path class="cls-2" d="M266.5,438.17c4.5,0,4.51,7,0,7s-4.51-7,0-7Z" transform="translate(0 0.47)"/><path class="cls-2" d="M266.5,446.67a4.8,4.8,0,0,1-4.88-5,5.18,5.18,0,0,1,1.21-3.38,4.74,4.74,0,0,1,3.67-1.61,4.79,4.79,0,0,1,4.88,5,5.16,5.16,0,0,1-1.21,3.38A4.75,4.75,0,0,1,266.5,446.67Zm0-7a1.76,1.76,0,0,0-1.4.57,2.16,2.16,0,0,0-.48,1.42,1.88,1.88,0,0,0,1.88,2,1.79,1.79,0,0,0,1.4-.57,2.2,2.2,0,0,0,.48-1.43A1.87,1.87,0,0,0,266.5,439.67Z" transform="translate(0 0.47)"/><path class="cls-2" d="M362.06,484c4.51,0,4.51,7,0,7s-4.51-7,0-7Z" transform="translate(0 0.47)"/><path class="cls-2" d="M362.06,492.5a4.79,4.79,0,0,1-4.88-5,5.14,5.14,0,0,1,1.21-3.38,4.71,4.71,0,0,1,3.67-1.62,4.79,4.79,0,0,1,4.88,5,5.19,5.19,0,0,1-1.2,3.38A4.73,4.73,0,0,1,362.06,492.5Zm0-7a1.76,1.76,0,0,0-1.4.57,2.26,2.26,0,0,0-.48,1.43,1.87,1.87,0,0,0,1.88,2,1.75,1.75,0,0,0,1.4-.57,2.2,2.2,0,0,0,.48-1.43A1.87,1.87,0,0,0,362.06,485.5Z" transform="translate(0 0.47)"/><path class="cls-2" d="M347.68,189.25c5.15,0,5.16,8,0,8s-5.15-8,0-8Z" transform="translate(0 0.47)"/><path class="cls-2" d="M347.68,198.75a5.26,5.26,0,0,1-5.36-5.5,5.69,5.69,0,0,1,1.33-3.73,5.21,5.21,0,0,1,4-1.77,5.27,5.27,0,0,1,5.37,5.5,5.74,5.74,0,0,1-1.33,3.73A5.23,5.23,0,0,1,347.68,198.75Zm0-8a2.19,2.19,0,0,0-1.76.73,2.74,2.74,0,0,0-.6,1.77,2.34,2.34,0,0,0,2.36,2.5,2.17,2.17,0,0,0,1.76-.73,2.69,2.69,0,0,0,.61-1.77A2.35,2.35,0,0,0,347.68,190.75Z" transform="translate(0 0.47)"/><path class="cls-2" d="M410.72,25.71c5.14,0,5.15,8,0,8s-5.16-8,0-8Z" transform="translate(0 0.47)"/><path class="cls-2" d="M410.72,35.21a5.27,5.27,0,0,1-5.37-5.51A5.68,5.68,0,0,1,406.68,26a5.21,5.21,0,0,1,4-1.77,5.26,5.26,0,0,1,5.36,5.5,5.69,5.69,0,0,1-1.33,3.73A5.21,5.21,0,0,1,410.72,35.21Zm0-8a2.19,2.19,0,0,0-1.76.72,2.73,2.73,0,0,0-.61,1.77,2.36,2.36,0,0,0,2.37,2.51,2.23,2.23,0,0,0,1.76-.73,2.76,2.76,0,0,0,.6-1.77A2.35,2.35,0,0,0,410.72,27.21Z" transform="translate(0 0.47)"/><path class="cls-2" d="M188,143.5c5.15,0,5.16,8,0,8s-5.16-8,0-8Z" transform="translate(0 0.47)"/><path class="cls-2" d="M188,153a5.26,5.26,0,0,1-5.36-5.5,5.74,5.74,0,0,1,1.32-3.73,5.4,5.4,0,0,1,9.4,3.73,5.74,5.74,0,0,1-1.32,3.73A5.24,5.24,0,0,1,188,153Zm0-8a2.18,2.18,0,0,0-1.76.73,2.74,2.74,0,0,0-.6,1.77A2.34,2.34,0,0,0,188,150a2.18,2.18,0,0,0,1.76-.73,2.74,2.74,0,0,0,.6-1.77A2.34,2.34,0,0,0,188,145Z" transform="translate(0 0.47)"/><path class="cls-2" d="M555.77,333.83c5.14,0,5.15,8,0,8s-5.16-8,0-8Z" transform="translate(0 0.47)"/><path class="cls-2" d="M555.77,343.33a5.26,5.26,0,0,1-5.37-5.5,5.69,5.69,0,0,1,1.33-3.73,5.21,5.21,0,0,1,4-1.77,5.27,5.27,0,0,1,5.36,5.51,5.66,5.66,0,0,1-1.33,3.72A5.21,5.21,0,0,1,555.77,343.33Zm0-8a2.23,2.23,0,0,0-1.77.73,2.76,2.76,0,0,0-.6,1.77,2.35,2.35,0,0,0,2.37,2.5,2.22,2.22,0,0,0,1.76-.72,2.76,2.76,0,0,0,.6-1.77A2.35,2.35,0,0,0,555.77,335.33Z" transform="translate(0 0.47)"/><path class="cls-2" d="M679.77,289.17c5.14,0,5.15,8,0,8s-5.16-8,0-8Z" transform="translate(0 0.47)"/><path class="cls-2" d="M679.77,298.67a5.27,5.27,0,0,1-5.37-5.51,5.66,5.66,0,0,1,1.33-3.72,5.4,5.4,0,0,1,9.4,3.73,5.69,5.69,0,0,1-1.33,3.73A5.21,5.21,0,0,1,679.77,298.67Zm0-8a2.23,2.23,0,0,0-1.77.72,2.76,2.76,0,0,0-.6,1.77,2.36,2.36,0,0,0,2.37,2.51,2.23,2.23,0,0,0,1.76-.73,2.76,2.76,0,0,0,.6-1.77A2.35,2.35,0,0,0,679.77,290.67Z" transform="translate(0 0.47)"/><path class="cls-2" d="M565.93,110.5c4.51,0,4.51,7,0,7s-4.51-7,0-7Z" transform="translate(0 0.47)"/><path class="cls-2" d="M565.93,119a4.79,4.79,0,0,1-4.88-5,5.14,5.14,0,0,1,1.21-3.38,4.71,4.71,0,0,1,3.67-1.62,4.79,4.79,0,0,1,4.88,5,5.19,5.19,0,0,1-1.2,3.38A4.73,4.73,0,0,1,565.93,119Zm0-7a1.76,1.76,0,0,0-1.4.57,2.26,2.26,0,0,0-.48,1.43,1.87,1.87,0,0,0,1.88,2,1.76,1.76,0,0,0,1.4-.57,2.2,2.2,0,0,0,.48-1.43A1.87,1.87,0,0,0,565.93,112Z" transform="translate(0 0.47)"/><path class="cls-2" d="M690.27,118.67c3.86,0,3.86,6,0,6s-3.87-6,0-6Z" transform="translate(0 0.47)"/><path class="cls-2" d="M690.27,126.17a4.32,4.32,0,0,1-4.4-4.51,4.62,4.62,0,0,1,1.08-3,4.43,4.43,0,0,1,7.71,3A4.31,4.31,0,0,1,690.27,126.17Zm0-6a1.5,1.5,0,0,0,0,3,1.28,1.28,0,0,0,1-.42,1.67,1.67,0,0,0,.36-1.08A1.37,1.37,0,0,0,690.27,120.17Z" transform="translate(0 0.47)"/><path class="cls-2" d="M769,186.39c3.21,0,3.22,5,0,5s-3.23-5,0-5Z" transform="translate(0 0.47)"/><path class="cls-2" d="M769,192.89a3.88,3.88,0,0,1-3.92-4,4.15,4.15,0,0,1,1-2.7,3.81,3.81,0,0,1,3-1.3,3.87,3.87,0,0,1,3.91,4,4.16,4.16,0,0,1-1,2.7A3.82,3.82,0,0,1,769,192.89Zm0-5a.82.82,0,0,0-.68.26,1.17,1.17,0,0,0-.24.74.89.89,0,0,0,.92,1,.79.79,0,0,0,.67-.26,1.17,1.17,0,0,0,.24-.74A.89.89,0,0,0,769,187.89Z" transform="translate(0 0.47)"/><path class="cls-2" d="M881.18,70.5c3.22,0,3.22,5,0,5s-3.22-5,0-5Z" transform="translate(0 0.47)"/><path class="cls-2" d="M881.18,77a3.87,3.87,0,0,1-3.91-4,4.16,4.16,0,0,1,1-2.7,3.81,3.81,0,0,1,2.95-1.3,3.88,3.88,0,0,1,3.92,4,4.17,4.17,0,0,1-1,2.7A3.81,3.81,0,0,1,881.18,77Zm0-5a.79.79,0,0,0-.67.26,1.12,1.12,0,0,0-.24.74.89.89,0,0,0,.91,1,.82.82,0,0,0,.68-.26,1.17,1.17,0,0,0,.24-.74A.89.89,0,0,0,881.18,72Z" transform="translate(0 0.47)"/><path class="cls-2" d="M894.38,340.06c3.21,0,3.22,5,0,5s-3.23-5,0-5Z" transform="translate(0 0.47)"/><path class="cls-2" d="M894.38,346.56a3.87,3.87,0,0,1-3.92-4,4.07,4.07,0,0,1,1-2.69,3.81,3.81,0,0,1,3-1.3,3.87,3.87,0,0,1,3.91,4,4.12,4.12,0,0,1-1,2.69A3.83,3.83,0,0,1,894.38,346.56Zm0-5a.82.82,0,0,0-.68.25,1.17,1.17,0,0,0-.24.74.89.89,0,0,0,.92,1,.81.81,0,0,0,.67-.26,1.17,1.17,0,0,0,.24-.74A.89.89,0,0,0,894.38,341.56Z" transform="translate(0 0.47)"/><path class="cls-2" d="M850.18,214.87c3.22,0,3.22,5,0,5s-3.22-5,0-5Z" transform="translate(0 0.47)"/><path class="cls-2" d="M850.18,221.38a3.88,3.88,0,0,1-3.91-4,4.12,4.12,0,0,1,1-2.69,3.81,3.81,0,0,1,2.95-1.3,3.88,3.88,0,0,1,3.92,4,4.13,4.13,0,0,1-1,2.69A3.82,3.82,0,0,1,850.18,221.38Zm0-5a.8.8,0,0,0-.67.25,1.12,1.12,0,0,0-.24.74.9.9,0,0,0,.91,1,.82.82,0,0,0,.68-.26,1.17,1.17,0,0,0,.24-.74A.89.89,0,0,0,850.18,216.38Z" transform="translate(0 0.47)"/><path class="cls-2" d="M595,440.75c3.21,0,3.22,5,0,5s-3.23-5,0-5Z" transform="translate(0 0.47)"/><path class="cls-2" d="M595,447.25a3.87,3.87,0,0,1-3.92-4,4.12,4.12,0,0,1,1-2.7,3.81,3.81,0,0,1,2.95-1.3,3.87,3.87,0,0,1,3.91,4,4.16,4.16,0,0,1-1,2.7A3.82,3.82,0,0,1,595,447.25Zm0-5a.82.82,0,0,0-.68.26,1.17,1.17,0,0,0-.24.74.89.89,0,0,0,.92,1,.81.81,0,0,0,.67-.26,1.17,1.17,0,0,0,.24-.74A.89.89,0,0,0,595,442.25Z" transform="translate(0 0.47)"/><path class="cls-2" d="M788.93,412.5c3.22,0,3.22,5,0,5s-3.22-5,0-5Z" transform="translate(0 0.47)"/><path class="cls-2" d="M788.93,419a3.87,3.87,0,0,1-3.91-4,4.16,4.16,0,0,1,1-2.7,3.81,3.81,0,0,1,2.95-1.3,3.88,3.88,0,0,1,3.92,4,4.17,4.17,0,0,1-1,2.7A3.81,3.81,0,0,1,788.93,419Zm0-5a.79.79,0,0,0-.67.26,1.12,1.12,0,0,0-.24.74.89.89,0,0,0,.91,1,.82.82,0,0,0,.68-.26,1.17,1.17,0,0,0,.24-.74A.89.89,0,0,0,788.93,414Z" transform="translate(0 0.47)"/><path class="cls-2" d="M684.71,514.25c3.22,0,3.22,5,0,5s-3.22-5,0-5Z" transform="translate(0 0.47)"/><path class="cls-2" d="M684.71,520.75a3.88,3.88,0,0,1-3.92-4,4.17,4.17,0,0,1,1-2.7,3.81,3.81,0,0,1,3-1.3,3.87,3.87,0,0,1,3.91,4,4.16,4.16,0,0,1-1,2.7A3.81,3.81,0,0,1,684.71,520.75Zm0-5a.78.78,0,0,0-.67.26,1.12,1.12,0,0,0-.25.74.89.89,0,0,0,.92,1,.79.79,0,0,0,.67-.26,1.12,1.12,0,0,0,.24-.74A.88.88,0,0,0,684.71,515.75Z" transform="translate(0 0.47)"/><path class="cls-2" d="M675,611.59c3.21,0,3.22,5,0,5s-3.23-5,0-5Z" transform="translate(0 0.47)"/><path class="cls-2" d="M675,618.09a3.87,3.87,0,0,1-3.92-4,4.07,4.07,0,0,1,1-2.69,3.82,3.82,0,0,1,2.95-1.31,3.87,3.87,0,0,1,3.91,4,4.07,4.07,0,0,1-1,2.69A3.8,3.8,0,0,1,675,618.09Zm0-5a.82.82,0,0,0-.68.26,1.17,1.17,0,0,0-.24.74.89.89,0,0,0,.92,1,.81.81,0,0,0,.67-.25,1.17,1.17,0,0,0,.24-.74A.89.89,0,0,0,675,613.09Z" transform="translate(0 0.47)"/><path class="cls-2" d="M735.93,699.17c3.22,0,3.22,5,0,5s-3.22-5,0-5Z" transform="translate(0 0.47)"/><path class="cls-2" d="M735.93,705.67a3.87,3.87,0,0,1-3.91-4,4.14,4.14,0,0,1,1-2.7,3.81,3.81,0,0,1,2.95-1.3,3.88,3.88,0,0,1,3.92,4,4.13,4.13,0,0,1-1,2.69A3.82,3.82,0,0,1,735.93,705.67Zm0-5a.8.8,0,0,0-.67.25,1.13,1.13,0,0,0-.24.75.89.89,0,0,0,.91,1,.82.82,0,0,0,.68-.26,1.17,1.17,0,0,0,.24-.74A.89.89,0,0,0,735.93,700.67Z" transform="translate(0 0.47)"/><path class="cls-2" d="M825,742.5c4.5,0,4.51,7,0,7s-4.51-7,0-7Z" transform="translate(0 0.47)"/><path class="cls-2" d="M825,751a4.79,4.79,0,0,1-4.88-5,5.14,5.14,0,0,1,1.21-3.38A4.71,4.71,0,0,1,825,741a4.79,4.79,0,0,1,4.88,5,5.14,5.14,0,0,1-1.21,3.38A4.71,4.71,0,0,1,825,751Zm0-7a1.76,1.76,0,0,0-1.4.57,2.2,2.2,0,0,0-.48,1.43,1.87,1.87,0,0,0,1.88,2,1.76,1.76,0,0,0,1.4-.57,2.2,2.2,0,0,0,.48-1.43A1.87,1.87,0,0,0,825,744Z" transform="translate(0 0.47)"/><path class="cls-2" d="M1121.78,767.67c4.5,0,4.51,7,0,7s-4.51-7,0-7Z" transform="translate(0 0.47)"/><path class="cls-2" d="M1121.78,776.17a4.79,4.79,0,0,1-4.88-5,5.19,5.19,0,0,1,1.21-3.39,4.74,4.74,0,0,1,3.67-1.61,4.79,4.79,0,0,1,4.88,5,5.16,5.16,0,0,1-1.21,3.38A4.75,4.75,0,0,1,1121.78,776.17Zm0-7a1.76,1.76,0,0,0-1.4.57,2.24,2.24,0,0,0-.48,1.43,1.87,1.87,0,0,0,1.88,2,1.76,1.76,0,0,0,1.4-.57,2.2,2.2,0,0,0,.48-1.43A1.87,1.87,0,0,0,1121.78,769.17Z" transform="translate(0 0.47)"/><path class="cls-2" d="M791.33,507.48c4.51,0,4.52,7,0,7s-4.51-7,0-7Z" transform="translate(0 0.47)"/><path class="cls-2" d="M791.33,516a4.79,4.79,0,0,1-4.88-5,5.19,5.19,0,0,1,1.21-3.39,4.92,4.92,0,0,1,8.56,3.39,5.14,5.14,0,0,1-1.21,3.38A4.73,4.73,0,0,1,791.33,516Zm0-7a1.72,1.72,0,0,0-1.39.57,2.21,2.21,0,0,0-.49,1.43,1.88,1.88,0,0,0,1.88,2,1.73,1.73,0,0,0,1.4-.57,2.21,2.21,0,0,0,.49-1.43A1.88,1.88,0,0,0,791.33,509Z" transform="translate(0 0.47)"/><path class="cls-2" d="M840.45,495.33c4.5,0,4.51,7,0,7s-4.51-7,0-7Z" transform="translate(0 0.47)"/><path class="cls-2" d="M840.45,503.83a4.79,4.79,0,0,1-4.88-5,5.23,5.23,0,0,1,1.2-3.39,4.92,4.92,0,0,1,8.56,3.39,5.14,5.14,0,0,1-1.21,3.38A4.75,4.75,0,0,1,840.45,503.83Zm0-7a1.73,1.73,0,0,0-1.4.57,2.2,2.2,0,0,0-.48,1.43,1.87,1.87,0,0,0,1.88,2,1.76,1.76,0,0,0,1.4-.57,2.26,2.26,0,0,0,.48-1.43A1.87,1.87,0,0,0,840.45,496.83Z" transform="translate(0 0.47)"/><path class="cls-2" d="M928.62,336.72c4.5,0,4.51,7,0,7s-4.51-7,0-7Z" transform="translate(0 0.47)"/><path class="cls-2" d="M928.62,345.22a4.79,4.79,0,0,1-4.88-5,5.19,5.19,0,0,1,1.21-3.39,4.74,4.74,0,0,1,3.67-1.61,4.79,4.79,0,0,1,4.88,5,5.14,5.14,0,0,1-1.21,3.38A4.71,4.71,0,0,1,928.62,345.22Zm0-7a1.76,1.76,0,0,0-1.4.57,2.2,2.2,0,0,0-.48,1.43,1.87,1.87,0,0,0,1.88,2,1.76,1.76,0,0,0,1.4-.57,2.26,2.26,0,0,0,.48-1.43A1.87,1.87,0,0,0,928.62,338.22Z" transform="translate(0 0.47)"/><path class="cls-2" d="M1055.83,209.17c4.5,0,4.51,7,0,7s-4.51-7,0-7Z" transform="translate(0 0.47)"/><path class="cls-2" d="M1055.83,217.67a4.79,4.79,0,0,1-4.88-5,5.23,5.23,0,0,1,1.2-3.38,4.92,4.92,0,0,1,8.56,3.39,5.16,5.16,0,0,1-1.21,3.38A4.75,4.75,0,0,1,1055.83,217.67Zm0-7a1.73,1.73,0,0,0-1.4.57,2.16,2.16,0,0,0-.48,1.42,1.88,1.88,0,0,0,1.88,2,1.79,1.79,0,0,0,1.4-.57,2.26,2.26,0,0,0,.48-1.43A1.87,1.87,0,0,0,1055.83,210.67Z" transform="translate(0 0.47)"/><path class="cls-2" d="M886.77,509.7c4.5,0,4.51,7,0,7s-4.51-7,0-7Z" transform="translate(0 0.47)"/><path class="cls-2" d="M886.77,518.2a4.79,4.79,0,0,1-4.88-5,5.23,5.23,0,0,1,1.2-3.38,4.92,4.92,0,0,1,8.56,3.39,5.18,5.18,0,0,1-1.21,3.38A4.75,4.75,0,0,1,886.77,518.2Zm0-7a1.75,1.75,0,0,0-1.4.57,2.16,2.16,0,0,0-.48,1.42,1.88,1.88,0,0,0,1.88,2,1.79,1.79,0,0,0,1.4-.57,2.26,2.26,0,0,0,.48-1.43A1.87,1.87,0,0,0,886.77,511.2Z" transform="translate(0 0.47)"/><path class="cls-2" d="M1240.1,404.25c4.51,0,4.51,7,0,7s-4.51-7,0-7Z" transform="translate(0 0.47)"/><path class="cls-2" d="M1240.1,412.75a4.79,4.79,0,0,1-4.88-5,5.14,5.14,0,0,1,1.21-3.38,4.71,4.71,0,0,1,3.67-1.62,4.79,4.79,0,0,1,4.88,5,5.13,5.13,0,0,1-1.2,3.38A4.73,4.73,0,0,1,1240.1,412.75Zm0-7a1.76,1.76,0,0,0-1.4.57,2.26,2.26,0,0,0-.48,1.43,1.87,1.87,0,0,0,1.88,2,1.73,1.73,0,0,0,1.4-.57,2.2,2.2,0,0,0,.48-1.43A1.87,1.87,0,0,0,1240.1,405.75Z" transform="translate(0 0.47)"/><path class="cls-2" d="M1251.31,513.25c4.5,0,4.51,7,0,7s-4.52-7,0-7Z" transform="translate(0 0.47)"/><path class="cls-2" d="M1251.31,521.75a4.79,4.79,0,0,1-4.88-5,5.13,5.13,0,0,1,1.2-3.38,4.73,4.73,0,0,1,3.68-1.62,4.79,4.79,0,0,1,4.88,5,5.14,5.14,0,0,1-1.21,3.38A4.73,4.73,0,0,1,1251.31,521.75Zm0-7a1.73,1.73,0,0,0-1.4.57,2.2,2.2,0,0,0-.48,1.43,1.87,1.87,0,0,0,1.88,2,1.72,1.72,0,0,0,1.39-.57,2.21,2.21,0,0,0,.49-1.43A1.88,1.88,0,0,0,1251.31,514.75Z" transform="translate(0 0.47)"/><path class="cls-2" d="M1199.92,720.67c4.5,0,4.51,7,0,7s-4.51-7,0-7Z" transform="translate(0 0.47)"/><path class="cls-2" d="M1199.92,729.17a4.79,4.79,0,0,1-4.88-5,5.19,5.19,0,0,1,1.21-3.39,4.74,4.74,0,0,1,3.67-1.61,4.79,4.79,0,0,1,4.88,5,5.16,5.16,0,0,1-1.21,3.38A4.75,4.75,0,0,1,1199.92,729.17Zm0-7a1.76,1.76,0,0,0-1.4.57,2.17,2.17,0,0,0-.48,1.43,1.87,1.87,0,0,0,1.88,2,1.79,1.79,0,0,0,1.4-.57,2.26,2.26,0,0,0,.48-1.43A1.87,1.87,0,0,0,1199.92,722.17Z" transform="translate(0 0.47)"/><path class="cls-2" d="M1380.17,341.17c4.5,0,4.51,7,0,7s-4.51-7,0-7Z" transform="translate(0 0.47)"/><path class="cls-2" d="M1380.17,349.67a4.8,4.8,0,0,1-4.88-5,5.18,5.18,0,0,1,1.21-3.38,4.91,4.91,0,0,1,8.55,3.39,5.16,5.16,0,0,1-1.21,3.38A4.75,4.75,0,0,1,1380.17,349.67Zm0-7a1.76,1.76,0,0,0-1.4.57,2.21,2.21,0,0,0-.48,1.42,1.88,1.88,0,0,0,1.88,2,1.79,1.79,0,0,0,1.4-.57,2.2,2.2,0,0,0,.48-1.43A1.87,1.87,0,0,0,1380.17,342.67Z" transform="translate(0 0.47)"/><path class="cls-2" d="M1121,110.67c4.51,0,4.52,7,0,7s-4.51-7,0-7Z" transform="translate(0 0.47)"/><path class="cls-2" d="M1121,119.17a4.8,4.8,0,0,1-4.88-5,5.18,5.18,0,0,1,1.21-3.38,4.92,4.92,0,0,1,8.56,3.39,5.16,5.16,0,0,1-1.21,3.38A4.77,4.77,0,0,1,1121,119.17Zm0-7a1.72,1.72,0,0,0-1.39.57,2.16,2.16,0,0,0-.49,1.42,1.88,1.88,0,0,0,1.88,2,1.76,1.76,0,0,0,1.4-.57,2.21,2.21,0,0,0,.49-1.43A1.88,1.88,0,0,0,1121,112.17Z" transform="translate(0 0.47)"/><path class="cls-2" d="M1067.16,67.83c4.5,0,4.51,7,0,7s-4.51-7,0-7Z" transform="translate(0 0.47)"/><path class="cls-2" d="M1067.16,76.33a4.79,4.79,0,0,1-4.88-5,5.16,5.16,0,0,1,1.21-3.38,4.91,4.91,0,0,1,8.55,3.39,5.18,5.18,0,0,1-1.21,3.38A4.74,4.74,0,0,1,1067.16,76.33Zm0-7a1.79,1.79,0,0,0-1.4.57,2.26,2.26,0,0,0-.48,1.43,1.87,1.87,0,0,0,1.88,2,1.76,1.76,0,0,0,1.4-.57,2.16,2.16,0,0,0,.48-1.42A1.88,1.88,0,0,0,1067.16,69.33Z" transform="translate(0 0.47)"/><path class="cls-2" d="M1273.65,55.92c4.51,0,4.52,7,0,7s-4.51-7,0-7Z" transform="translate(0 0.47)"/><path class="cls-2" d="M1273.65,64.42a4.8,4.8,0,0,1-4.88-5A5.18,5.18,0,0,1,1270,56a4.91,4.91,0,0,1,8.55,3.39,5.15,5.15,0,0,1-1.2,3.38A4.77,4.77,0,0,1,1273.65,64.42Zm0-7a1.72,1.72,0,0,0-1.39.57,2.16,2.16,0,0,0-.49,1.42,1.88,1.88,0,0,0,1.88,2,1.76,1.76,0,0,0,1.4-.57,2.2,2.2,0,0,0,.48-1.43A1.87,1.87,0,0,0,1273.65,57.42Z" transform="translate(0 0.47)"/><path class="cls-2" d="M1502.67,270.17c4.5,0,4.51,7,0,7s-4.51-7,0-7Z" transform="translate(0 0.47)"/><path class="cls-2" d="M1502.67,278.67a4.8,4.8,0,0,1-4.88-5,5.18,5.18,0,0,1,1.21-3.38,4.91,4.91,0,0,1,8.55,3.39,5.16,5.16,0,0,1-1.21,3.38A4.75,4.75,0,0,1,1502.67,278.67Zm0-7a1.76,1.76,0,0,0-1.4.57,2.21,2.21,0,0,0-.48,1.42,1.88,1.88,0,0,0,1.88,2,1.79,1.79,0,0,0,1.4-.57,2.2,2.2,0,0,0,.48-1.43A1.87,1.87,0,0,0,1502.67,271.67Z" transform="translate(0 0.47)"/><path class="cls-2" d="M1452.17,324.33c4.5,0,4.51,7,0,7s-4.51-7,0-7Z" transform="translate(0 0.47)"/><path class="cls-2" d="M1452.17,332.83a4.79,4.79,0,0,1-4.88-5,5.16,5.16,0,0,1,1.21-3.38,4.91,4.91,0,0,1,8.55,3.39,5.18,5.18,0,0,1-1.21,3.38A4.74,4.74,0,0,1,1452.17,332.83Zm0-7a1.79,1.79,0,0,0-1.4.57,2.26,2.26,0,0,0-.48,1.43,1.87,1.87,0,0,0,1.88,2,1.76,1.76,0,0,0,1.4-.57,2.16,2.16,0,0,0,.48-1.42A1.88,1.88,0,0,0,1452.17,325.83Z" transform="translate(0 0.47)"/><path class="cls-2" d="M1456.93,146.5c3.22,0,3.22,5,0,5s-3.22-5,0-5Z" transform="translate(0 0.47)"/><path class="cls-2" d="M1456.93,153a3.87,3.87,0,0,1-3.91-4,4.16,4.16,0,0,1,1-2.7,3.81,3.81,0,0,1,3-1.3,3.88,3.88,0,0,1,3.92,4,4.17,4.17,0,0,1-1,2.7A3.81,3.81,0,0,1,1456.93,153Zm0-5a.79.79,0,0,0-.67.26,1.12,1.12,0,0,0-.24.74.89.89,0,0,0,.91,1,.82.82,0,0,0,.68-.26,1.17,1.17,0,0,0,.24-.74A.89.89,0,0,0,1456.93,148Z" transform="translate(0 0.47)"/><path class="cls-2" d="M1447.31,467.84c3.21,0,3.22,5,0,5s-3.23-5,0-5Z" transform="translate(0 0.47)"/><path class="cls-2" d="M1447.31,474.34a3.87,3.87,0,0,1-3.92-4,4.12,4.12,0,0,1,1-2.7,3.81,3.81,0,0,1,3-1.3,3.87,3.87,0,0,1,3.91,4,4.16,4.16,0,0,1-1,2.7A3.82,3.82,0,0,1,1447.31,474.34Zm0-5a.82.82,0,0,0-.68.26,1.17,1.17,0,0,0-.24.74.89.89,0,0,0,.92,1,.79.79,0,0,0,.67-.26,1.17,1.17,0,0,0,.24-.74A.89.89,0,0,0,1447.31,469.34Z" transform="translate(0 0.47)"/><path class="cls-2" d="M1452.15,578.26c5.15,0,5.15,8,0,8s-5.16-8,0-8Z" transform="translate(0 0.47)"/><path class="cls-2" d="M1452.15,587.76a5.28,5.28,0,0,1-5.37-5.51,5.74,5.74,0,0,1,1.33-3.72,5.4,5.4,0,0,1,9.4,3.73,5.69,5.69,0,0,1-1.33,3.73A5.21,5.21,0,0,1,1452.15,587.76Zm0-8a2.19,2.19,0,0,0-1.76.72,2.73,2.73,0,0,0-.61,1.77,2.36,2.36,0,0,0,2.37,2.51,2.23,2.23,0,0,0,1.76-.73,2.76,2.76,0,0,0,.6-1.77A2.34,2.34,0,0,0,1452.15,579.76Z" transform="translate(0 0.47)"/><path class="cls-2" d="M1469.43,700.26c4.51,0,4.51,7,0,7s-4.51-7,0-7Z" transform="translate(0 0.47)"/><path class="cls-2" d="M1469.43,708.76a4.8,4.8,0,0,1-4.88-5,5.18,5.18,0,0,1,1.21-3.38,4.91,4.91,0,0,1,8.55,3.39,5.21,5.21,0,0,1-1.2,3.38A4.77,4.77,0,0,1,1469.43,708.76Zm0-7a1.76,1.76,0,0,0-1.4.57,2.23,2.23,0,0,0-.48,1.42,1.88,1.88,0,0,0,1.88,2,1.79,1.79,0,0,0,1.4-.57,2.2,2.2,0,0,0,.48-1.43A1.87,1.87,0,0,0,1469.43,701.76Z" transform="translate(0 0.47)"/><path class="cls-2" d="M1260.74,791.39c4.5,0,4.51,7,0,7s-4.51-7,0-7Z" transform="translate(0 0.47)"/><path class="cls-2" d="M1260.74,799.89a4.79,4.79,0,0,1-4.88-5,5.23,5.23,0,0,1,1.2-3.39,4.92,4.92,0,0,1,8.56,3.39,5.14,5.14,0,0,1-1.21,3.38A4.71,4.71,0,0,1,1260.74,799.89Zm0-7a1.73,1.73,0,0,0-1.4.57,2.2,2.2,0,0,0-.48,1.43,1.87,1.87,0,0,0,1.88,2,1.76,1.76,0,0,0,1.4-.57,2.26,2.26,0,0,0,.48-1.43A1.87,1.87,0,0,0,1260.74,792.89Z" transform="translate(0 0.47)"/><path class="cls-2" d="M1569.18,787.19c4.51,0,4.51,7,0,7s-4.51-7,0-7Z" transform="translate(0 0.47)"/><path class="cls-2" d="M1569.18,795.69a4.79,4.79,0,0,1-4.88-5,5.19,5.19,0,0,1,1.21-3.39,4.91,4.91,0,0,1,8.55,3.39,5.21,5.21,0,0,1-1.2,3.38A4.77,4.77,0,0,1,1569.18,795.69Zm0-7a1.76,1.76,0,0,0-1.4.57,2.26,2.26,0,0,0-.48,1.43,1.87,1.87,0,0,0,1.88,2,1.76,1.76,0,0,0,1.4-.57,2.2,2.2,0,0,0,.48-1.43A1.87,1.87,0,0,0,1569.18,788.69Z" transform="translate(0 0.47)"/><path class="cls-2" d="M1569.18,630.47c4.51,0,4.51,7,0,7s-4.51-7,0-7Z" transform="translate(0 0.47)"/><path class="cls-2" d="M1569.18,639a4.79,4.79,0,0,1-4.88-5,5.18,5.18,0,0,1,1.21-3.38,4.91,4.91,0,0,1,8.55,3.39,5.23,5.23,0,0,1-1.2,3.38A4.76,4.76,0,0,1,1569.18,639Zm0-7a1.77,1.77,0,0,0-1.4.58,2.21,2.21,0,0,0-.48,1.42,1.87,1.87,0,0,0,1.88,2,1.76,1.76,0,0,0,1.4-.57,2.16,2.16,0,0,0,.48-1.42A1.88,1.88,0,0,0,1569.18,632Z" transform="translate(0 0.47)"/><path class="cls-2" d="M1723.4,628.75c4.5,0,4.51,7,0,7s-4.52-7,0-7Z" transform="translate(0 0.47)"/><path class="cls-2" d="M1723.4,637.25a4.79,4.79,0,0,1-4.88-5,5.13,5.13,0,0,1,1.2-3.38,4.73,4.73,0,0,1,3.68-1.62,4.79,4.79,0,0,1,4.88,5,5.14,5.14,0,0,1-1.21,3.38A4.73,4.73,0,0,1,1723.4,637.25Zm0-7a1.73,1.73,0,0,0-1.4.57,2.2,2.2,0,0,0-.48,1.43,1.87,1.87,0,0,0,1.88,2,1.72,1.72,0,0,0,1.39-.57,2.21,2.21,0,0,0,.49-1.43A1.88,1.88,0,0,0,1723.4,630.25Z" transform="translate(0 0.47)"/><path class="cls-2" d="M1540.27,408.67c4.5,0,4.51,7,0,7s-4.52-7,0-7Z" transform="translate(0 0.47)"/><path class="cls-2" d="M1540.27,417.17a4.8,4.8,0,0,1-4.89-5,5.18,5.18,0,0,1,1.21-3.38,4.92,4.92,0,0,1,8.56,3.39,5.16,5.16,0,0,1-1.21,3.38A4.76,4.76,0,0,1,1540.27,417.17Zm0-7a1.73,1.73,0,0,0-1.4.57,2.16,2.16,0,0,0-.49,1.42,1.89,1.89,0,0,0,1.89,2,1.76,1.76,0,0,0,1.39-.57,2.21,2.21,0,0,0,.49-1.43A1.88,1.88,0,0,0,1540.27,410.17Z" transform="translate(0 0.47)"/><path class="cls-2" d="M1793.23,567.25c4.5,0,4.51,7,0,7s-4.51-7,0-7Z" transform="translate(0 0.47)"/><path class="cls-2" d="M1793.23,575.75a4.79,4.79,0,0,1-4.88-5,5.14,5.14,0,0,1,1.21-3.38,4.71,4.71,0,0,1,3.67-1.62,4.79,4.79,0,0,1,4.88,5,5.14,5.14,0,0,1-1.21,3.38A4.71,4.71,0,0,1,1793.23,575.75Zm0-7a1.76,1.76,0,0,0-1.4.57,2.2,2.2,0,0,0-.48,1.43,1.87,1.87,0,0,0,1.88,2,1.76,1.76,0,0,0,1.4-.57,2.26,2.26,0,0,0,.48-1.43A1.87,1.87,0,0,0,1793.23,568.75Z" transform="translate(0 0.47)"/><path class="cls-2" d="M1671.93,366.5c4.51,0,4.51,7,0,7s-4.51-7,0-7Z" transform="translate(0 0.47)"/><path class="cls-2" d="M1671.93,375a4.79,4.79,0,0,1-4.88-5,5.14,5.14,0,0,1,1.21-3.38,4.71,4.71,0,0,1,3.67-1.62,4.79,4.79,0,0,1,4.88,5,5.19,5.19,0,0,1-1.2,3.38A4.73,4.73,0,0,1,1671.93,375Zm0-7a1.76,1.76,0,0,0-1.4.57,2.26,2.26,0,0,0-.48,1.43,1.87,1.87,0,0,0,1.88,2,1.76,1.76,0,0,0,1.4-.57,2.2,2.2,0,0,0,.48-1.43A1.87,1.87,0,0,0,1671.93,368Z" transform="translate(0 0.47)"/><path class="cls-2" d="M1852.43,392c4.51,0,4.51,7,0,7s-4.51-7,0-7Z" transform="translate(0 0.47)"/><path class="cls-2" d="M1852.43,400.5a4.79,4.79,0,0,1-4.88-5,5.14,5.14,0,0,1,1.21-3.38,4.71,4.71,0,0,1,3.67-1.62,4.79,4.79,0,0,1,4.88,5,5.19,5.19,0,0,1-1.2,3.38A4.73,4.73,0,0,1,1852.43,400.5Zm0-7a1.76,1.76,0,0,0-1.4.57,2.26,2.26,0,0,0-.48,1.43,1.87,1.87,0,0,0,1.88,2,1.76,1.76,0,0,0,1.4-.57,2.2,2.2,0,0,0,.48-1.43A1.87,1.87,0,0,0,1852.43,393.5Z" transform="translate(0 0.47)"/><path class="cls-2" d="M1821.93,281c4.51,0,4.51,7,0,7s-4.51-7,0-7Z" transform="translate(0 0.47)"/><path class="cls-2" d="M1821.93,289.5a4.79,4.79,0,0,1-4.88-5,5.14,5.14,0,0,1,1.21-3.38,4.71,4.71,0,0,1,3.67-1.62,4.79,4.79,0,0,1,4.88,5,5.19,5.19,0,0,1-1.2,3.38A4.73,4.73,0,0,1,1821.93,289.5Zm0-7a1.76,1.76,0,0,0-1.4.57,2.26,2.26,0,0,0-.48,1.43,1.87,1.87,0,0,0,1.88,2,1.76,1.76,0,0,0,1.4-.57,2.2,2.2,0,0,0,.48-1.43A1.87,1.87,0,0,0,1821.93,282.5Z" transform="translate(0 0.47)"/><path class="cls-2" d="M1901.43,250.5c4.51,0,4.51,7,0,7s-4.51-7,0-7Z" transform="translate(0 0.47)"/><path class="cls-2" d="M1901.43,259a4.79,4.79,0,0,1-4.88-5,5.14,5.14,0,0,1,1.21-3.38,4.71,4.71,0,0,1,3.67-1.62,4.79,4.79,0,0,1,4.88,5,5.19,5.19,0,0,1-1.2,3.38A4.73,4.73,0,0,1,1901.43,259Zm0-7a1.76,1.76,0,0,0-1.4.57,2.26,2.26,0,0,0-.48,1.43,1.87,1.87,0,0,0,1.88,2,1.76,1.76,0,0,0,1.4-.57,2.2,2.2,0,0,0,.48-1.43A1.87,1.87,0,0,0,1901.43,252Z" transform="translate(0 0.47)"/><path class="cls-2" d="M1767.93,138.5c4.51,0,4.51,7,0,7s-4.51-7,0-7Z" transform="translate(0 0.47)"/><path class="cls-2" d="M1767.93,147a4.79,4.79,0,0,1-4.88-5,5.14,5.14,0,0,1,1.21-3.38,4.71,4.71,0,0,1,3.67-1.62,4.79,4.79,0,0,1,4.88,5,5.19,5.19,0,0,1-1.2,3.38A4.73,4.73,0,0,1,1767.93,147Zm0-7a1.76,1.76,0,0,0-1.4.57,2.26,2.26,0,0,0-.48,1.43,1.87,1.87,0,0,0,1.88,2,1.76,1.76,0,0,0,1.4-.57,2.2,2.2,0,0,0,.48-1.43A1.87,1.87,0,0,0,1767.93,140Z" transform="translate(0 0.47)"/><path class="cls-2" d="M1902.93,73.5c4.51,0,4.51,7,0,7s-4.51-7,0-7Z" transform="translate(0 0.47)"/><path class="cls-2" d="M1902.93,82a4.79,4.79,0,0,1-4.88-5,5.14,5.14,0,0,1,1.21-3.38,4.71,4.71,0,0,1,3.67-1.62,4.79,4.79,0,0,1,4.88,5,5.19,5.19,0,0,1-1.2,3.38A4.73,4.73,0,0,1,1902.93,82Zm0-7a1.76,1.76,0,0,0-1.4.57,2.26,2.26,0,0,0-.48,1.43,1.87,1.87,0,0,0,1.88,2,1.76,1.76,0,0,0,1.4-.57,2.2,2.2,0,0,0,.48-1.43A1.87,1.87,0,0,0,1902.93,75Z" transform="translate(0 0.47)"/><path class="cls-2" d="M1850.93,156c2.58,0,2.58,4,0,4s-2.58-4,0-4Z" transform="translate(0 0.47)"/><path class="cls-2" d="M1850.93,161.5a3.4,3.4,0,0,1-3.43-3.5,3.61,3.61,0,0,1,.84-2.35,3.45,3.45,0,0,1,6,2.35,3.61,3.61,0,0,1-.84,2.35A3.36,3.36,0,0,1,1850.93,161.5Zm0-4c-.22,0-.28.07-.31.1a.68.68,0,0,0-.12.4c0,.5.31.5.43.5s.29-.07.31-.1a.62.62,0,0,0,.12-.4C1851.36,157.5,1851.05,157.5,1850.93,157.5Z" transform="translate(0 0.47)"/><path class="cls-2" d="M862.93,822.5c4.51,0,4.51,7,0,7s-4.51-7,0-7Z" transform="translate(0 0.47)"/><path class="cls-2" d="M862.93,831a4.79,4.79,0,0,1-4.88-5,5.14,5.14,0,0,1,1.21-3.38,4.71,4.71,0,0,1,3.67-1.62,4.79,4.79,0,0,1,4.88,5,5.19,5.19,0,0,1-1.2,3.38A4.73,4.73,0,0,1,862.93,831Zm0-7a1.76,1.76,0,0,0-1.4.57,2.26,2.26,0,0,0-.48,1.43,1.87,1.87,0,0,0,1.88,2,1.76,1.76,0,0,0,1.4-.57,2.2,2.2,0,0,0,.48-1.43A1.87,1.87,0,0,0,862.93,824Z" transform="translate(0 0.47)"/><path class="cls-2" d="M994.38,975.67c3.86,0,3.86,6,0,6s-3.87-6,0-6Z" transform="translate(0 0.47)"/><path class="cls-2" d="M994.38,983.17a4.32,4.32,0,0,1-4.4-4.5,4.63,4.63,0,0,1,1.08-3,4.47,4.47,0,1,1,3.32,7.54Zm0-6a1.5,1.5,0,0,0,0,3,1.28,1.28,0,0,0,1-.42,1.65,1.65,0,0,0,.36-1.08A1.37,1.37,0,0,0,994.38,977.17Z" transform="translate(0 0.47)"/><path class="cls-2" d="M967.27,1059.33c5.79,0,5.8,9,0,9s-5.81-9,0-9Z" transform="translate(0 0.47)"/><path class="cls-2" d="M967.27,1069.83a5.74,5.74,0,0,1-5.85-6,6.2,6.2,0,0,1,1.45-4.07,5.68,5.68,0,0,1,4.4-1.93,5.74,5.74,0,0,1,5.84,6,6.21,6.21,0,0,1-1.45,4.07A5.67,5.67,0,0,1,967.27,1069.83Zm0-9a2.67,2.67,0,0,0-2.13.89,3.25,3.25,0,0,0-.72,2.11,2.75,2.75,0,0,0,2.85,3,2.65,2.65,0,0,0,2.12-.88,3.26,3.26,0,0,0,.72-2.11A2.76,2.76,0,0,0,967.27,1060.83Z" transform="translate(0 0.47)"/><path class="cls-2" d="M1128.27,899.94c4.5,0,4.51,7,0,7s-4.52-7,0-7Z" transform="translate(0 0.47)"/><path class="cls-2" d="M1128.27,908.44a4.79,4.79,0,0,1-4.89-5,5.18,5.18,0,0,1,1.21-3.38,4.91,4.91,0,0,1,8.56,3.39,5.18,5.18,0,0,1-1.21,3.38A4.75,4.75,0,0,1,1128.27,908.44Zm0-7a1.76,1.76,0,0,0-1.4.57,2.21,2.21,0,0,0-.49,1.43,1.88,1.88,0,0,0,1.89,2,1.72,1.72,0,0,0,1.39-.57,2.16,2.16,0,0,0,.49-1.42A1.88,1.88,0,0,0,1128.27,901.44Z" transform="translate(0 0.47)"/><path class="cls-2" d="M1183.15,850.83c4.51,0,4.52,7,0,7s-4.51-7,0-7Z" transform="translate(0 0.47)"/><path class="cls-2" d="M1183.15,859.33a4.79,4.79,0,0,1-4.88-5,5.16,5.16,0,0,1,1.21-3.38,4.91,4.91,0,0,1,8.55,3.38,5.18,5.18,0,0,1-1.2,3.39A4.76,4.76,0,0,1,1183.15,859.33Zm0-7a1.72,1.72,0,0,0-1.39.57,2.21,2.21,0,0,0-.49,1.43,1.88,1.88,0,0,0,1.88,2,1.73,1.73,0,0,0,1.4-.57,2.18,2.18,0,0,0,.48-1.43A1.87,1.87,0,0,0,1183.15,852.33Z" transform="translate(0 0.47)"/><path class="cls-2" d="M1194.09,990.78c4.5,0,4.51,7,0,7s-4.51-7,0-7Z" transform="translate(0 0.47)"/><path class="cls-2" d="M1194.09,999.28a4.79,4.79,0,0,1-4.88-5,5.19,5.19,0,0,1,1.2-3.38,4.91,4.91,0,0,1,8.56,3.38,5.19,5.19,0,0,1-1.21,3.39A4.74,4.74,0,0,1,1194.09,999.28Zm0-7a1.76,1.76,0,0,0-1.4.57,2.2,2.2,0,0,0-.48,1.43,1.87,1.87,0,0,0,1.88,2,1.76,1.76,0,0,0,1.4-.57,2.26,2.26,0,0,0,.48-1.43A1.87,1.87,0,0,0,1194.09,992.28Z" transform="translate(0 0.47)"/><path class="cls-2" d="M1556.88,866.81c4.5,0,4.51,7,0,7s-4.52-7,0-7Z" transform="translate(0 0.47)"/><path class="cls-2" d="M1556.88,875.31a4.79,4.79,0,0,1-4.88-5,5.17,5.17,0,0,1,1.2-3.38,4.92,4.92,0,0,1,8.56,3.39,5.18,5.18,0,0,1-1.21,3.38A4.75,4.75,0,0,1,1556.88,875.31Zm0-7a1.73,1.73,0,0,0-1.4.57,2.16,2.16,0,0,0-.48,1.42,1.88,1.88,0,0,0,1.88,2,1.76,1.76,0,0,0,1.39-.57,2.21,2.21,0,0,0,.49-1.43A1.88,1.88,0,0,0,1556.88,868.31Z" transform="translate(0 0.47)"/><path class="cls-2" d="M1584.7,885.35c4.51,0,4.51,7,0,7s-4.51-7,0-7Z" transform="translate(0 0.47)"/><path class="cls-2" d="M1584.7,893.85a4.79,4.79,0,0,1-4.88-5,5.18,5.18,0,0,1,1.21-3.38,4.91,4.91,0,0,1,8.55,3.39,5.23,5.23,0,0,1-1.2,3.38A4.76,4.76,0,0,1,1584.7,893.85Zm0-7a1.79,1.79,0,0,0-1.4.57,2.26,2.26,0,0,0-.48,1.43,1.87,1.87,0,0,0,1.88,2,1.73,1.73,0,0,0,1.4-.57,2.16,2.16,0,0,0,.48-1.42A1.88,1.88,0,0,0,1584.7,886.85Z" transform="translate(0 0.47)"/><path class="cls-2" d="M1553.93,1058.5c5.15,0,5.16,8,0,8s-5.15-8,0-8Z" transform="translate(0 0.47)"/><path class="cls-2" d="M1553.93,1068a5.26,5.26,0,0,1-5.36-5.5,5.69,5.69,0,0,1,1.33-3.73,5.21,5.21,0,0,1,4-1.77,5.27,5.27,0,0,1,5.37,5.5,5.74,5.74,0,0,1-1.33,3.73A5.23,5.23,0,0,1,1553.93,1068Zm0-8a2.19,2.19,0,0,0-1.76.73,2.74,2.74,0,0,0-.6,1.77,2.34,2.34,0,0,0,2.36,2.5,2.17,2.17,0,0,0,1.76-.73,2.69,2.69,0,0,0,.61-1.77A2.35,2.35,0,0,0,1553.93,1060Z" transform="translate(0 0.47)"/><path class="cls-2" d="M1646.1,885.5c5.15,0,5.15,8,0,8s-5.16-8,0-8Z" transform="translate(0 0.47)"/><path class="cls-2" d="M1646.1,895a5.27,5.27,0,0,1-5.37-5.5,5.74,5.74,0,0,1,1.33-3.73,5.4,5.4,0,0,1,9.4,3.73,5.69,5.69,0,0,1-1.33,3.73A5.21,5.21,0,0,1,1646.1,895Zm0-8a2.17,2.17,0,0,0-1.76.73,2.69,2.69,0,0,0-.61,1.77,2.35,2.35,0,0,0,2.37,2.5,2.19,2.19,0,0,0,1.76-.73,2.74,2.74,0,0,0,.6-1.77A2.34,2.34,0,0,0,1646.1,887Z" transform="translate(0 0.47)"/><path class="cls-2" d="M1669.49,858.25c4.51,0,4.52,7,0,7s-4.51-7,0-7Z" transform="translate(0 0.47)"/><path class="cls-2" d="M1669.49,866.75a4.79,4.79,0,0,1-4.88-5,5.14,5.14,0,0,1,1.21-3.38,4.73,4.73,0,0,1,3.67-1.62,4.8,4.8,0,0,1,4.89,5,5.14,5.14,0,0,1-1.21,3.38A4.73,4.73,0,0,1,1669.49,866.75Zm0-7a1.72,1.72,0,0,0-1.39.57,2.21,2.21,0,0,0-.49,1.43,1.88,1.88,0,0,0,1.88,2,1.73,1.73,0,0,0,1.4-.57,2.21,2.21,0,0,0,.49-1.43A1.88,1.88,0,0,0,1669.49,859.75Z" transform="translate(0 0.47)"/><path class="cls-2" d="M1754.93,736.5c4.51,0,4.51,7,0,7s-4.51-7,0-7Z" transform="translate(0 0.47)"/><path class="cls-2" d="M1754.93,745a4.79,4.79,0,0,1-4.88-5,5.14,5.14,0,0,1,1.21-3.38,4.71,4.71,0,0,1,3.67-1.62,4.79,4.79,0,0,1,4.88,5,5.19,5.19,0,0,1-1.2,3.38A4.73,4.73,0,0,1,1754.93,745Zm0-7a1.76,1.76,0,0,0-1.4.57,2.26,2.26,0,0,0-.48,1.43,1.87,1.87,0,0,0,1.88,2,1.76,1.76,0,0,0,1.4-.57,2.2,2.2,0,0,0,.48-1.43A1.87,1.87,0,0,0,1754.93,738Z" transform="translate(0 0.47)"/><path class="cls-2" d="M1788.77,900.5c4.5,0,4.51,7,0,7s-4.52-7,0-7Z" transform="translate(0 0.47)"/><path class="cls-2" d="M1788.77,909a4.8,4.8,0,0,1-4.89-5,5.14,5.14,0,0,1,1.21-3.38,4.73,4.73,0,0,1,3.68-1.62,4.79,4.79,0,0,1,4.88,5,5.14,5.14,0,0,1-1.21,3.38A4.73,4.73,0,0,1,1788.77,909Zm0-7a1.73,1.73,0,0,0-1.4.57,2.21,2.21,0,0,0-.49,1.43,1.88,1.88,0,0,0,1.89,2,1.72,1.72,0,0,0,1.39-.57,2.21,2.21,0,0,0,.49-1.43A1.88,1.88,0,0,0,1788.77,902Z" transform="translate(0 0.47)"/><path class="cls-2" d="M1900.43,799.5c4.51,0,4.51,7,0,7s-4.51-7,0-7Z" transform="translate(0 0.47)"/><path class="cls-2" d="M1900.43,808a4.79,4.79,0,0,1-4.88-5,5.14,5.14,0,0,1,1.21-3.38,4.71,4.71,0,0,1,3.67-1.62,4.79,4.79,0,0,1,4.88,5,5.19,5.19,0,0,1-1.2,3.38A4.73,4.73,0,0,1,1900.43,808Zm0-7a1.76,1.76,0,0,0-1.4.57,2.26,2.26,0,0,0-.48,1.43,1.87,1.87,0,0,0,1.88,2,1.76,1.76,0,0,0,1.4-.57,2.2,2.2,0,0,0,.48-1.43A1.87,1.87,0,0,0,1900.43,801Z" transform="translate(0 0.47)"/><path class="cls-2" d="M1789.43,1044.5c4.51,0,4.51,7,0,7s-4.51-7,0-7Z" transform="translate(0 0.47)"/><path class="cls-2" d="M1789.43,1053a4.79,4.79,0,0,1-4.88-5,5.14,5.14,0,0,1,1.21-3.38,4.71,4.71,0,0,1,3.67-1.62,4.79,4.79,0,0,1,4.88,5,5.19,5.19,0,0,1-1.2,3.38A4.73,4.73,0,0,1,1789.43,1053Zm0-7a1.76,1.76,0,0,0-1.4.57,2.26,2.26,0,0,0-.48,1.43,1.87,1.87,0,0,0,1.88,2,1.76,1.76,0,0,0,1.4-.57,2.2,2.2,0,0,0,.48-1.43A1.87,1.87,0,0,0,1789.43,1046Z" transform="translate(0 0.47)"/><path class="cls-2" d="M1895.71,984.94c4.5,0,4.51,7,0,7s-4.51-7,0-7Z" transform="translate(0 0.47)"/><path class="cls-2" d="M1895.71,993.44a4.79,4.79,0,0,1-4.88-5,5.18,5.18,0,0,1,1.21-3.38,4.75,4.75,0,0,1,3.67-1.62,4.8,4.8,0,0,1,4.88,5,5.18,5.18,0,0,1-1.21,3.38A4.74,4.74,0,0,1,1895.71,993.44Zm0-7a1.79,1.79,0,0,0-1.4.57,2.2,2.2,0,0,0-.48,1.43,1.87,1.87,0,0,0,1.88,2,1.76,1.76,0,0,0,1.4-.57,2.21,2.21,0,0,0,.48-1.42A1.88,1.88,0,0,0,1895.71,986.44Z" transform="translate(0 0.47)"/><path class="cls-3" d="M136.16,188.35,124,65.61,245.72,38.22Zm-11.09-122L136.9,185.65,243.34,39.78Z" transform="translate(0 0.47)"/><path class="cls-3" d="M371.51,248.45l43.39-59.08,66.41,1.47Zm43.89-58.07-40.52,55.17,102.53-53.79Z" transform="translate(0 0.47)"/><path class="cls-3" d="M479.51,191.8h-.16l-64.75-1.44.06-.53,15.71-162L564,132.69Zm-63.81-2.41,63.51,1.41,83.15-58.16L431.19,29.71Z" transform="translate(0 0.47)"/><polygon class="cls-3" points="726.34 337.01 479.11 192.2 479.61 191.34 722.21 333.43 563.03 133.74 415.33 190.81 414.97 189.88 563.36 132.54 563.59 132.82 726.34 337.01"/><polygon class="cls-3" points="346.89 414.68 372.7 247.39 373.69 247.55 348.66 409.76 478.93 191.51 479.79 192.03 346.89 414.68"/><path class="cls-3" d="M211.11,755.57l-.61-.4L39.43,642.87l-.8.19L82,551.16l.4.11,163.06,42.2L354,532.31l.49.88L246,594.33Zm-170.33-113L210.44,753.93l34.43-159.26Zm41.77-90.21L40.42,641.61l203-47.63Z" transform="translate(0 0.47)"/><path class="cls-3" d="M241.5,1037.81l-.32-.07L132.94,1015l1.08-.66,211-129.2Zm-105.89-23.29,105.44,22.17L341.57,888.38Z" transform="translate(0 0.47)"/><path class="cls-3" d="M561.1,967.61,550.83,741.44l125.29,45.13Zm-9.21-224.72L562,964.39,674.6,787.09Z" transform="translate(0 0.47)"/><path class="cls-3" d="M877.63,1008.6,764.55,891.8l-78.49,67h-.17L561.56,966.5l-.06-1,124.16-7.66,78.67-67.17.09,0L846.15,862ZM765.49,891.32,875.92,1005.4,845.41,863.28Z" transform="translate(0 0.47)"/><path class="cls-3" d="M686.48,960.28l-1-1.68L550.81,742.22l.08-.23,38.63-103.68-.27.22,1-2.33h0l80.59-172.15,0,.46,61.82-88.87L680.87,563.1,786,665.72,591,637.3l-39,104.81L685.24,956.39,674.86,786.86l1-.06ZM591.83,636.42l191.25,27.86L680.28,563.92Zm78.46-168.66L592,635,679.78,563Zm.84-1.72,9.41,94.5L730.26,381Z" transform="translate(0 0.47)"/><polygon class="cls-3" points="877.27 1007.56 876.29 1007.38 923.28 742.64 846.2 863.37 845.36 862.83 925.15 737.86 877.27 1007.56"/><path class="cls-3" d="M845.75,864.21,783.62,663.77,889.76,736.7l49.23-108,0-.35h.11l.05-.1.33.09,99-2.3-49.57,15.38L923.42,741.92l.23-1.68L890.32,738Zm-60.32-198L845.81,861l43.56-123.4ZM890.73,737l33,2.25,14.74-107.14ZM939.9,629.42,925,737.64l62.77-96.37Zm3.33-.21,45.35,11.22,42.76-13.26Z" transform="translate(0 0.47)"/><path class="cls-3" d="M1094.64,782.29l-.56-.14L924.22,740.3l-1.6.4,111.67-114.2-54.54-94-40.58,98.42L920.61,428.48l1,1.72,97.23,4.28,0-.41.73.44.58,0-.1.26,78.14,47-.17.4-62.34,143.94L1160.5,637l-57.39,58.43ZM926.29,739.78,1093.75,781l8.31-85.21ZM1034.81,627.4l-109,111.47,175.84-44-66.13-67,.07.84Zm1.41-.2,66.4,67.26,55.68-56.68ZM922,432.9l17.77,193.83,39.33-95.37Zm98,3,15.28,188.62L1096.9,482.2Zm-39.74,95.35,54,93.14-15.17-187.31Zm-58-100,57.39,99,39.06-94.72Z" transform="translate(0 0.47)"/><polygon class="cls-3" points="1158.94 638.03 1098.33 484.58 939.82 629.64 939.14 628.9 1098.73 482.86 1098.99 483.54 1159.87 637.66 1158.94 638.03"/><path class="cls-3" d="M922.11,431.42,731.4,378.82l.26-1L920.53,430,858,253.89l.19-.22,131.71-153,.36.2,133.5,75L1190.32,84l-11.15,142.72L1123.57,177,990.08,102l-131,152.14Zm202.42-254.94,53.8,48.14,10.72-137.17Z" transform="translate(0 0.47)"/><path class="cls-3" d="M1349.37,619.54l4.87-112.61-98.31-221.5-77.48-59.37.6-.79,77.4,59.3,296.43-75.5,12.45,80.53-.33.16-192,95.65,99.79,69.81-116.07,51.29L1562,524.67Zm5.85-112.16L1350.44,618l207.63-92.63Zm17.19-121.17-17,119.8,115.39-51ZM1257.7,287,1354.5,505l17-119.47-.44-.31.08,0Zm-.32-1.6,114.72,99.38L1564.23,289l-12.17-78.72Z" transform="translate(0 0.47)"/><path class="cls-3" d="M1350.3,619.05l-.8-.6,121.88-163.62,92.92-165.68,15.6-98.66,49,15.66,12.8-16.44,23.57,27.95,118.61-42,.67-144.5L1892.2,91.48l-58.68,46.34,64,141.16L1784.25,176.57l-118.31,41.91.65.77-1.41-.45-100,70.86-92.94,165.71ZM1580.7,191.8l-15.13,95.69,62.66-80.5Zm48.54,15.51-62,79.64L1664,218.42ZM1785.14,176l109.44,99-61.87-136.56Zm-155.25,30.44,33.7,10.78-21.88-26ZM1785.52,34.29,1784.87,175l47.42-37.44Zm.59-1.11,47,103.7,57.31-45.25Z" transform="translate(0 0.47)"/><path class="cls-3" d="M1552.75,210.11l-.55-.83,26.9-17.94L1189.64,86.22l-200,15.64L962.38,16.32l1-.31,27,84.79,199.4-15.59.08,0,389.86,105.22-31.19-176,94,176.51-61.63.65,0,.19-.54-.14Zm-2.18-189.59,30.15,170.12,60.15-.63Z" transform="translate(0 0.47)"/><rect class="cls-3" x="1177.16" y="42.36" width="159.22" height="1" transform="translate(174.46 683.58) rotate(-32.56)"/><polygon class="cls-3" points="1750.35 341.09 1664.68 219.01 1665.5 218.43 1750.7 339.85 1895.52 277.15 1890.81 92.04 1891.81 92.01 1896.54 277.8 1896.23 277.93 1750.35 341.09"/><path class="cls-3" d="M1668.29,710.77,1534.86,668l.24-.21L1352.76,505.74l275.09,79.66-68.15-60-88.23-69.86.62-.79,88.25,69.88,69.77,61.44.77.23-.45.39Zm-131.43-43.14,129.91,41.6-37.16-121.85Zm-180.13-159.7,179.14,159.24,93-80.45Z" transform="translate(0 0.47)"/><path class="cls-3" d="M1271.29,1022.38l-2.06-1.23-1,.48.38-.84L1105.05,923.3l0-.26-11.49-143.27L1157.87,877l-56.23-183.34,114.12,98.88,71.32,16.67.05-.54.19.2,61.87-189.55-189.74,18.55-.1-1,191.27-18.7-.24.73-62.28,190.8,50.24,53.89.33.19h0L1453.59,931l-.84.41L1270,1020.76Zm67-157.67-68,154.82L1451.47,931ZM1160,880.14l108.89,139.14L1285,833.81l-69.26-40.14Zm-54,42.56,161.2,96.08L1160.63,882.6l.22.73-2.1-3.13v0l-63.91-96.61Zm179.89-88.33L1270,1017.61l67.38-153.4ZM1103.61,696.7,1159.52,879l55.35-85.9ZM1286,833.27l49.37,28.61L1287.93,811Zm-67.32-39L1285,832.71l2-22.49Z" transform="translate(0 0.47)"/><polygon class="cls-3" points="1902.97 1004.7 1763.41 938.97 1459.02 931.97 1459.04 930.97 1763.65 937.97 1763.74 938.02 1900.09 1002.24 1846.29 923.01 1764.61 936.46 1764.45 935.48 1846.76 921.92 1846.94 922.19 1902.97 1004.7"/><rect class="cls-3" x="779.79" y="1043" width="110.72" height="1" transform="translate(-480.73 809.8) rotate(-41.24)"/><rect class="cls-3" x="1299.39" y="1007.61" width="1" height="85.35" transform="translate(-359.02 1252.85) rotate(-45.88)"/><rect class="cls-3" x="1099.33" y="1049.79" width="175.11" height="1" transform="translate(-285.59 464.57) rotate(-19.8)"/><rect class="cls-3" x="471.96" y="455.64" width="1" height="258.22" transform="translate(-253.05 782.15) rotate(-66.25)"/><rect class="cls-3" x="452.32" y="493.67" width="1" height="287.57" transform="translate(-313.81 484.05) rotate(-43.26)"/><polygon class="cls-3" points="1919.06 890.64 1896.63 826.85 1817.35 796.44 1667.28 710.9 1667.78 710.04 1817.78 795.54 1897.42 826.09 1920 890.3 1919.06 890.64"/><polygon class="cls-3" points="1896.56 825.13 1848.09 686.65 1819.01 793.6 1818.05 793.34 1847.97 683.29 1897.5 824.8 1896.56 825.13"/><path class="cls-3" d="M124.53,69c3.86,0,3.87-6,0-6s-3.87,6,0,6Z" transform="translate(0 0.47)"/><path class="cls-3" d="M124.53,70.5A4.5,4.5,0,1,1,127.84,63a4.64,4.64,0,0,1,1.09,3A4.31,4.31,0,0,1,124.53,70.5Zm0-6a1.38,1.38,0,0,0-1.4,1.5,1.7,1.7,0,0,0,.36,1.09,1.31,1.31,0,0,0,1,.41,1.5,1.5,0,0,0,0-3Z" transform="translate(0 0.47)"/><path class="cls-3" d="M244.53,43c5.15,0,5.15-8,0-8s-5.16,8,0,8Z" transform="translate(0 0.47)"/><path class="cls-3" d="M244.53,44.5a5.23,5.23,0,0,1-4-1.77A5.74,5.74,0,0,1,239.16,39a5.37,5.37,0,1,1,10.73,0A5.26,5.26,0,0,1,244.53,44.5Zm0-8a2.21,2.21,0,0,0-1.76.73,2.71,2.71,0,0,0-.61,1.77,2.37,2.37,0,1,0,2.37-2.5Z" transform="translate(0 0.47)"/><path class="cls-3" d="M136.53,190c3.86,0,3.87-6,0-6s-3.87,6,0,6Z" transform="translate(0 0.47)"/><path class="cls-3" d="M136.53,191.5a4.5,4.5,0,1,1,3.31-7.54,4.64,4.64,0,0,1,1.09,3A4.31,4.31,0,0,1,136.53,191.5Zm0-6a1.38,1.38,0,0,0-1.4,1.5,1.7,1.7,0,0,0,.36,1.09,1.31,1.31,0,0,0,1,.41,1.5,1.5,0,0,0,0-3Z" transform="translate(0 0.47)"/><path class="cls-3" d="M430.78,33.75c6.43,0,6.44-10,0-10s-6.45,10,0,10Z" transform="translate(0 0.47)"/><path class="cls-3" d="M430.78,35.25A6.07,6.07,0,0,1,426,33.17a6.78,6.78,0,0,1-1.57-4.42,6.33,6.33,0,1,1,12.66,0A6.22,6.22,0,0,1,430.78,35.25Zm0-10a3.27,3.27,0,0,0-3.33,3.5,3.33,3.33,0,1,0,6.66,0,3.78,3.78,0,0,0-.85-2.46A3.09,3.09,0,0,0,430.78,25.25Z" transform="translate(0 0.47)"/><path class="cls-3" d="M415.15,193.88c5.15,0,5.16-8,0-8s-5.15,8,0,8Z" transform="translate(0 0.47)"/><path class="cls-3" d="M415.15,195.38a5.18,5.18,0,0,1-4-1.78,5.66,5.66,0,0,1-1.33-3.72,5.37,5.37,0,1,1,5.36,5.5Zm0-8a2.22,2.22,0,0,0-1.76.72,2.79,2.79,0,0,0-.6,1.78,2.37,2.37,0,1,0,2.36-2.5Z" transform="translate(0 0.47)"/><path class="cls-3" d="M479.36,194.8c4.51,0,4.51-7,0-7s-4.51,7,0,7Z" transform="translate(0 0.47)"/><path class="cls-3" d="M479.36,196.3a5,5,0,1,1,4.88-5A4.79,4.79,0,0,1,479.36,196.3Zm0-7a2,2,0,1,0,1.88,2A1.87,1.87,0,0,0,479.36,189.3Z" transform="translate(0 0.47)"/><path class="cls-3" d="M563.19,136.67c5.15,0,5.16-8,0-8s-5.15,8,0,8Z" transform="translate(0 0.47)"/><path class="cls-3" d="M563.19,138.17a5.26,5.26,0,0,1-5.36-5.5,5.69,5.69,0,0,1,1.33-3.73,5.21,5.21,0,0,1,4-1.77,5.26,5.26,0,0,1,5.37,5.49,5.69,5.69,0,0,1-1.33,3.73A5.19,5.19,0,0,1,563.19,138.17Zm0-8a2.5,2.5,0,1,0,2.37,2.49A2.35,2.35,0,0,0,563.19,130.17Z" transform="translate(0 0.47)"/><path class="cls-3" d="M373.19,251c5.15,0,5.16-8,0-8s-5.15,8,0,8Z" transform="translate(0 0.47)"/><path class="cls-3" d="M373.19,252.5a5.26,5.26,0,0,1-5.36-5.5,5.71,5.71,0,0,1,1.33-3.73,5.21,5.21,0,0,1,4-1.77,5.27,5.27,0,0,1,5.37,5.5,5.71,5.71,0,0,1-1.33,3.73A5.21,5.21,0,0,1,373.19,252.5Zm0-8a2.5,2.5,0,1,0,2.37,2.5A2.35,2.35,0,0,0,373.19,244.5Z" transform="translate(0 0.47)"/><path class="cls-3" d="M347.78,415.75c5.15,0,5.15-8,0-8s-5.16,8,0,8Z" transform="translate(0 0.47)"/><path class="cls-3" d="M347.78,417.25a5.23,5.23,0,0,1-4-1.77,5.74,5.74,0,0,1-1.33-3.73,5.37,5.37,0,1,1,5.37,5.5Zm0-8A2.21,2.21,0,0,0,346,410a2.71,2.71,0,0,0-.61,1.77,2.37,2.37,0,1,0,2.37-2.5Z" transform="translate(0 0.47)"/><path class="cls-3" d="M724.28,338.75c5.15,0,5.15-8,0-8s-5.16,8,0,8Z" transform="translate(0 0.47)"/><path class="cls-3" d="M724.28,340.25a5.23,5.23,0,0,1-4-1.77,5.74,5.74,0,0,1-1.33-3.73,5.37,5.37,0,1,1,5.37,5.5Zm0-8a2.21,2.21,0,0,0-1.76.73,2.71,2.71,0,0,0-.61,1.77,2.37,2.37,0,1,0,2.37-2.5Z" transform="translate(0 0.47)"/><path class="cls-3" d="M39.53,646.33c5.15,0,5.15-8,0-8s-5.16,8,0,8Z" transform="translate(0 0.47)"/><path class="cls-3" d="M39.53,647.83a5.23,5.23,0,0,1-4-1.77,5.74,5.74,0,0,1-1.33-3.73,5.37,5.37,0,1,1,5.37,5.5Zm0-8a2.21,2.21,0,0,0-1.76.73,2.73,2.73,0,0,0-.61,1.77,2.37,2.37,0,1,0,2.37-2.5Z" transform="translate(0 0.47)"/><path class="cls-3" d="M210.78,758.25c4.5,0,4.51-7,0-7s-4.51,7,0,7Z" transform="translate(0 0.47)"/><path class="cls-3" d="M210.78,759.75a5,5,0,1,1,4.88-5A4.78,4.78,0,0,1,210.78,759.75Zm0-7a2,2,0,1,0,1.88,2A1.87,1.87,0,0,0,210.78,752.75Z" transform="translate(0 0.47)"/><path class="cls-3" d="M82.28,555.25c4.5,0,4.51-7,0-7s-4.51,7,0,7Z" transform="translate(0 0.47)"/><path class="cls-3" d="M82.28,556.75a5,5,0,1,1,4.88-5A4.78,4.78,0,0,1,82.28,556.75Zm0-7a2,2,0,1,0,1.88,2A1.87,1.87,0,0,0,82.28,549.75Z" transform="translate(0 0.47)"/><path class="cls-3" d="M245.53,597.5c4.5,0,4.51-7,0-7s-4.51,7,0,7Z" transform="translate(0 0.47)"/><path class="cls-3" d="M245.53,599a5,5,0,1,1,4.88-5A4.78,4.78,0,0,1,245.53,599Zm0-7a2,2,0,1,0,1.88,2A1.87,1.87,0,0,0,245.53,592Z" transform="translate(0 0.47)"/><path class="cls-3" d="M354.28,536.25c4.5,0,4.51-7,0-7s-4.51,7,0,7Z" transform="translate(0 0.47)"/><path class="cls-3" d="M354.28,537.75a5,5,0,1,1,4.88-5A4.78,4.78,0,0,1,354.28,537.75Zm0-7a2,2,0,1,0,1.88,2A1.87,1.87,0,0,0,354.28,530.75Z" transform="translate(0 0.47)"/><path class="cls-3" d="M343.28,890.75c5.15,0,5.15-8,0-8s-5.16,8,0,8Z" transform="translate(0 0.47)"/><path class="cls-3" d="M343.28,892.25a5.23,5.23,0,0,1-4-1.77,5.74,5.74,0,0,1-1.33-3.73,5.37,5.37,0,1,1,5.37,5.5Zm0-8a2.21,2.21,0,0,0-1.76.73,2.71,2.71,0,0,0-.61,1.77,2.37,2.37,0,1,0,2.37-2.5Z" transform="translate(0 0.47)"/><path class="cls-3" d="M241.28,1041.25c5.15,0,5.15-8,0-8s-5.16,8,0,8Z" transform="translate(0 0.47)"/><path class="cls-3" d="M241.28,1042.75a5.23,5.23,0,0,1-4-1.77,5.74,5.74,0,0,1-1.33-3.73,5.37,5.37,0,1,1,5.37,5.5Zm0-8a2.21,2.21,0,0,0-1.76.73,2.71,2.71,0,0,0-.61,1.77,2.37,2.37,0,1,0,2.37-2.5Z" transform="translate(0 0.47)"/><path class="cls-3" d="M134.28,1018.75c5.15,0,5.15-8,0-8s-5.16,8,0,8Z" transform="translate(0 0.47)"/><path class="cls-3" d="M134.28,1020.25a5.23,5.23,0,0,1-4-1.77,5.74,5.74,0,0,1-1.33-3.73,5.37,5.37,0,1,1,5.37,5.5Zm0-8a2.21,2.21,0,0,0-1.76.73,2.71,2.71,0,0,0-.61,1.77,2.37,2.37,0,1,0,2.37-2.5Z" transform="translate(0 0.47)"/><path class="cls-3" d="M551.36,746.17c5.15,0,5.16-8,0-8s-5.15,8,0,8Z" transform="translate(0 0.47)"/><path class="cls-3" d="M551.36,747.67a5.5,5.5,0,1,1,4-9.23,5.74,5.74,0,0,1,1.33,3.73A5.27,5.27,0,0,1,551.36,747.67Zm0-8a2.5,2.5,0,0,0,0,5,2.21,2.21,0,0,0,1.76-.73,2.79,2.79,0,0,0,.61-1.77A2.35,2.35,0,0,0,551.36,739.67Z" transform="translate(0 0.47)"/><path class="cls-3" d="M675.36,790.83c5.15,0,5.16-8,0-8s-5.15,8,0,8Z" transform="translate(0 0.47)"/><path class="cls-3" d="M675.36,792.33a5.5,5.5,0,1,1,4-9.23,5.74,5.74,0,0,1,1.33,3.73A5.27,5.27,0,0,1,675.36,792.33Zm0-8a2.5,2.5,0,0,0,0,5,2.21,2.21,0,0,0,1.76-.72,2.8,2.8,0,0,0,.61-1.78A2.35,2.35,0,0,0,675.36,784.33Z" transform="translate(0 0.47)"/><path class="cls-3" d="M561.53,969.5c4.5,0,4.51-7,0-7s-4.51,7,0,7Z" transform="translate(0 0.47)"/><path class="cls-3" d="M561.53,971a5,5,0,1,1,4.88-5A4.78,4.78,0,0,1,561.53,971Zm0-7a2,2,0,1,0,1.88,2A1.87,1.87,0,0,0,561.53,964Z" transform="translate(0 0.47)"/><path class="cls-3" d="M685.86,961.33c3.86,0,3.87-6,0-6s-3.87,6,0,6Z" transform="translate(0 0.47)"/><path class="cls-3" d="M685.86,962.83a4.31,4.31,0,0,1-4.4-4.5,4.68,4.68,0,0,1,1.09-3,4.48,4.48,0,0,1,6.62,0,4.68,4.68,0,0,1,1.09,3A4.31,4.31,0,0,1,685.86,962.83Zm0-6a1.38,1.38,0,0,0-1.4,1.5,1.69,1.69,0,0,0,.37,1.09,1.25,1.25,0,0,0,1,.41,1.5,1.5,0,0,0,0-3Z" transform="translate(0 0.47)"/><path class="cls-3" d="M764.58,893.61c3.22,0,3.23-5,0-5s-3.22,5,0,5Z" transform="translate(0 0.47)"/><path class="cls-3" d="M764.58,895.11a4,4,0,0,1,0-8,3.81,3.81,0,0,1,2.95,1.3,4.12,4.12,0,0,1,1,2.7A3.87,3.87,0,0,1,764.58,895.11Zm0-5a1,1,0,1,0,.92,1A.89.89,0,0,0,764.58,890.11Z" transform="translate(0 0.47)"/><path class="cls-3" d="M876.78,1009.5c3.22,0,3.22-5,0-5s-3.22,5,0,5Z" transform="translate(0 0.47)"/><path class="cls-3" d="M876.78,1011a3.81,3.81,0,0,1-2.95-1.3,4.17,4.17,0,0,1-1-2.7,3.88,3.88,0,0,1,3.92-4,3.81,3.81,0,0,1,3,1.3,4.16,4.16,0,0,1,1,2.7A3.87,3.87,0,0,1,876.78,1011Zm0-5a1,1,0,1,0,.91,1A.89.89,0,0,0,876.78,1006Z" transform="translate(0 0.47)"/><path class="cls-3" d="M890,739.94c3.22,0,3.23-5,0-5s-3.22,5,0,5Z" transform="translate(0 0.47)"/><path class="cls-3" d="M890,741.44a3.82,3.82,0,0,1-3-1.3,4.12,4.12,0,0,1-1-2.69,3.88,3.88,0,0,1,3.91-4,3.82,3.82,0,0,1,2.95,1.31,4.13,4.13,0,0,1,1,2.69A3.88,3.88,0,0,1,890,741.44Zm0-5a.89.89,0,0,0-.91,1,.88.88,0,0,0,.91,1,1,1,0,0,0,0-2Z" transform="translate(0 0.47)"/><path class="cls-3" d="M845.78,865.12c3.22,0,3.22-5,0-5s-3.22,5,0,5Z" transform="translate(0 0.47)"/><path class="cls-3" d="M845.78,866.62a3.81,3.81,0,0,1-2.95-1.3,4.13,4.13,0,0,1-1-2.69,3.89,3.89,0,0,1,3.92-4,3.82,3.82,0,0,1,3,1.31,4.12,4.12,0,0,1,1,2.69A3.87,3.87,0,0,1,845.78,866.62Zm0-5a.9.9,0,0,0-.92,1,.92.92,0,1,0,.92-1Z" transform="translate(0 0.47)"/><path class="cls-3" d="M590.63,639.25c3.22,0,3.22-5,0-5s-3.22,5,0,5Z" transform="translate(0 0.47)"/><path class="cls-3" d="M590.63,640.75a3.81,3.81,0,0,1-3-1.3,4.16,4.16,0,0,1-1-2.7,3.87,3.87,0,0,1,3.91-4,3.81,3.81,0,0,1,3,1.3,4.17,4.17,0,0,1,1,2.7A3.88,3.88,0,0,1,590.63,640.75Zm0-5a1,1,0,1,0,.92,1A.89.89,0,0,0,590.63,635.75Z" transform="translate(0 0.47)"/><path class="cls-3" d="M784.53,667.5c3.22,0,3.22-5,0-5s-3.22,5,0,5Z" transform="translate(0 0.47)"/><path class="cls-3" d="M784.53,669a3.81,3.81,0,0,1-2.95-1.3,4.17,4.17,0,0,1-1-2.7,3.88,3.88,0,0,1,3.92-4,3.81,3.81,0,0,1,3,1.3,4.16,4.16,0,0,1,1,2.7A3.87,3.87,0,0,1,784.53,669Zm0-5a1,1,0,1,0,.91,1A.89.89,0,0,0,784.53,664Z" transform="translate(0 0.47)"/><path class="cls-3" d="M680.31,565.75c3.21,0,3.22-5,0-5s-3.23,5,0,5Z" transform="translate(0 0.47)"/><path class="cls-3" d="M680.31,567.25a3.81,3.81,0,0,1-2.95-1.3,4.12,4.12,0,0,1-1-2.7,3.87,3.87,0,0,1,3.92-4,3.82,3.82,0,0,1,3,1.3,4.16,4.16,0,0,1,1,2.7A3.87,3.87,0,0,1,680.31,567.25Zm0-5a1,1,0,1,0,.91,1A.89.89,0,0,0,680.31,562.25Z" transform="translate(0 0.47)"/><path class="cls-3" d="M670.61,468.41c3.22,0,3.22-5,0-5s-3.22,5,0,5Z" transform="translate(0 0.47)"/><path class="cls-3" d="M670.61,469.91a3.82,3.82,0,0,1-3-1.31,4.12,4.12,0,0,1-1-2.69,3.87,3.87,0,0,1,3.91-4,3.81,3.81,0,0,1,2.95,1.3,4.13,4.13,0,0,1,1,2.69A3.88,3.88,0,0,1,670.61,469.91Zm0-5a1,1,0,1,0,.92,1A.89.89,0,0,0,670.61,464.91Z" transform="translate(0 0.47)"/><path class="cls-3" d="M731.53,380.83c3.22,0,3.22-5,0-5s-3.22,5,0,5Z" transform="translate(0 0.47)"/><path class="cls-3" d="M731.53,382.33a3.81,3.81,0,0,1-2.95-1.3,4.13,4.13,0,0,1-1-2.69,3.88,3.88,0,0,1,3.92-4,3.82,3.82,0,0,1,3,1.31,4.12,4.12,0,0,1,1,2.69A3.87,3.87,0,0,1,731.53,382.33Zm0-5a.89.89,0,0,0-.92,1,.92.92,0,1,0,.92-1Z" transform="translate(0 0.47)"/><path class="cls-3" d="M921.32,434.19c4.5,0,4.51-7,0-7s-4.51,7,0,7Z" transform="translate(0 0.47)"/><path class="cls-3" d="M921.32,435.69a5,5,0,1,1,4.88-5A4.79,4.79,0,0,1,921.32,435.69Zm0-7a2,2,0,1,0,1.88,2A1.87,1.87,0,0,0,921.32,428.69Z" transform="translate(0 0.47)"/><path class="cls-3" d="M1019.39,438.5c4.5,0,4.51-7,0-7s-4.51,7,0,7Z" transform="translate(0 0.47)"/><path class="cls-3" d="M1019.39,440a4.79,4.79,0,0,1-4.88-5,5.16,5.16,0,0,1,1.21-3.38,4.71,4.71,0,0,1,3.67-1.62,5,5,0,0,1,0,10Zm0-7a1.87,1.87,0,0,0-1.88,2,2.2,2.2,0,0,0,.48,1.43,1.76,1.76,0,0,0,1.4.57,2,2,0,0,0,0-4Z" transform="translate(0 0.47)"/><path class="cls-3" d="M939.48,632.3c4.5,0,4.51-7,0-7s-4.51,7,0,7Z" transform="translate(0 0.47)"/><path class="cls-3" d="M939.48,633.8a4.78,4.78,0,0,1-4.88-5,5.21,5.21,0,0,1,1.2-3.38,4.73,4.73,0,0,1,3.68-1.62,5,5,0,0,1,0,10Zm0-7a1.87,1.87,0,0,0-1.88,2,2.2,2.2,0,0,0,.48,1.43,1.75,1.75,0,0,0,1.4.57,2,2,0,0,0,0-4Z" transform="translate(0 0.47)"/><path class="cls-3" d="M988.59,644.45c4.5,0,4.51-7,0-7s-4.51,7,0,7Z" transform="translate(0 0.47)"/><path class="cls-3" d="M988.59,646a5,5,0,1,1,4.88-5A4.79,4.79,0,0,1,988.59,646Zm0-7a2,2,0,1,0,1.88,2A1.87,1.87,0,0,0,988.59,639Z" transform="translate(0 0.47)"/><path class="cls-3" d="M924.22,743.28c4.5,0,4.51-7,0-7s-4.52,7,0,7Z" transform="translate(0 0.47)"/><path class="cls-3" d="M924.22,744.78a5,5,0,1,1,4.88-5A4.78,4.78,0,0,1,924.22,744.78Zm0-7a2,2,0,1,0,1.88,2A1.87,1.87,0,0,0,924.22,737.78Z" transform="translate(0 0.47)"/><path class="cls-3" d="M1094.19,785.17c4.51,0,4.52-7,0-7s-4.51,7,0,7Z" transform="translate(0 0.47)"/><path class="cls-3" d="M1094.19,786.67a5,5,0,1,1,4.89-5A4.79,4.79,0,0,1,1094.19,786.67Zm0-7a2,2,0,1,0,1.89,2A1.88,1.88,0,0,0,1094.19,779.67Z" transform="translate(0 0.47)"/><path class="cls-3" d="M1034.91,630.08c4.51,0,4.51-7,0-7s-4.51,7,0,7Z" transform="translate(0 0.47)"/><path class="cls-3" d="M1034.91,631.58a5,5,0,1,1,3.68-8.38,5.21,5.21,0,0,1,1.2,3.38A4.78,4.78,0,0,1,1034.91,631.58Zm0-7a2,2,0,1,0,1.88,2A1.85,1.85,0,0,0,1034.91,624.58Z" transform="translate(0 0.47)"/><path class="cls-3" d="M1102.63,698.68c4.5,0,4.51-7,0-7s-4.52,7,0,7Z" transform="translate(0 0.47)"/><path class="cls-3" d="M1102.63,700.18a5,5,0,1,1,3.67-8.39,5.18,5.18,0,0,1,1.21,3.38A4.8,4.8,0,0,1,1102.63,700.18Zm0-7a2,2,0,1,0,1.88,2A1.84,1.84,0,0,0,1102.63,693.18Z" transform="translate(0 0.47)"/><path class="cls-3" d="M1159.4,640.88c4.51,0,4.51-7,0-7s-4.51,7,0,7Z" transform="translate(0 0.47)"/><path class="cls-3" d="M1159.4,642.38a5,5,0,1,1,4.88-5A4.79,4.79,0,0,1,1159.4,642.38Zm0-7a2,2,0,1,0,1.88,2A1.88,1.88,0,0,0,1159.4,635.38Z" transform="translate(0 0.47)"/><path class="cls-3" d="M1097.53,485.5c4.5,0,4.51-7,0-7s-4.51,7,0,7Z" transform="translate(0 0.47)"/><path class="cls-3" d="M1097.53,487a5,5,0,1,1,4.88-5A4.78,4.78,0,0,1,1097.53,487Zm0-7a2,2,0,1,0,1.88,2A1.87,1.87,0,0,0,1097.53,480Z" transform="translate(0 0.47)"/><path class="cls-3" d="M1215.53,796.5c4.5,0,4.51-7,0-7s-4.51,7,0,7Z" transform="translate(0 0.47)"/><path class="cls-3" d="M1215.53,798a5,5,0,1,1,4.88-5A4.78,4.78,0,0,1,1215.53,798Zm0-7a2,2,0,1,0,1.88,2A1.87,1.87,0,0,0,1215.53,791Z" transform="translate(0 0.47)"/><path class="cls-3" d="M1159.36,883.67c4.51,0,4.51-7,0-7s-4.51,7,0,7Z" transform="translate(0 0.47)"/><path class="cls-3" d="M1159.36,885.17a5,5,0,1,1,4.88-5A4.79,4.79,0,0,1,1159.36,885.17Zm0-7a2,2,0,1,0,1.88,2A1.87,1.87,0,0,0,1159.36,878.17Z" transform="translate(0 0.47)"/><path class="cls-3" d="M1105.53,926.5c4.5,0,4.51-7,0-7s-4.51,7,0,7Z" transform="translate(0 0.47)"/><path class="cls-3" d="M1105.53,928a5,5,0,1,1,4.88-5A4.78,4.78,0,0,1,1105.53,928Zm0-7a2,2,0,1,0,1.88,2A1.87,1.87,0,0,0,1105.53,921Z" transform="translate(0 0.47)"/><path class="cls-3" d="M1269.25,1024.08c4.5,0,4.51-7,0-7s-4.51,7,0,7Z" transform="translate(0 0.47)"/><path class="cls-3" d="M1269.25,1025.58a5,5,0,1,1,3.67-8.38,5.16,5.16,0,0,1,1.21,3.38A4.79,4.79,0,0,1,1269.25,1025.58Zm0-7a2,2,0,1,0,1.88,2A1.85,1.85,0,0,0,1269.25,1018.58Z" transform="translate(0 0.47)"/><path class="cls-3" d="M1338,867.5c4.5,0,4.51-7,0-7s-4.51,7,0,7Z" transform="translate(0 0.47)"/><path class="cls-3" d="M1338,869a5,5,0,1,1,4.88-5A4.78,4.78,0,0,1,1338,869Zm0-7a2,2,0,1,0,1.88,2A1.87,1.87,0,0,0,1338,862Z" transform="translate(0 0.47)"/><path class="cls-3" d="M1287.53,813.33c4.5,0,4.51-7,0-7s-4.51,7,0,7Z" transform="translate(0 0.47)"/><path class="cls-3" d="M1287.53,814.83a5,5,0,1,1,4.88-5A4.78,4.78,0,0,1,1287.53,814.83Zm0-7a2,2,0,1,0,1.88,2A1.87,1.87,0,0,0,1287.53,807.83Z" transform="translate(0 0.47)"/><path class="cls-3" d="M1452.53,933.5c3.22,0,3.22-5,0-5s-3.22,5,0,5Z" transform="translate(0 0.47)"/><path class="cls-3" d="M1452.53,935a3.81,3.81,0,0,1-3-1.3,4.17,4.17,0,0,1-1-2.7,3.88,3.88,0,0,1,3.92-4,3.81,3.81,0,0,1,3,1.3,4.16,4.16,0,0,1,1,2.7A3.87,3.87,0,0,1,1452.53,935Zm0-5a1,1,0,1,0,.91,1A.89.89,0,0,0,1452.53,930Z" transform="translate(0 0.47)"/><path class="cls-3" d="M1349.9,621.25c3.22,0,3.23-5,0-5s-3.22,5,0,5Z" transform="translate(0 0.47)"/><path class="cls-3" d="M1349.9,622.75a3.82,3.82,0,0,1-3-1.3,4.16,4.16,0,0,1-1-2.7,3.87,3.87,0,0,1,3.91-4,3.81,3.81,0,0,1,2.95,1.3,4.12,4.12,0,0,1,1,2.7A3.87,3.87,0,0,1,1349.9,622.75Zm0-5a1,1,0,1,0,.92,1A.89.89,0,0,0,1349.9,617.75Z" transform="translate(0 0.47)"/><path class="cls-3" d="M1354.74,510.83c5.15,0,5.16-8,0-8s-5.15,8,0,8Z" transform="translate(0 0.47)"/><path class="cls-3" d="M1354.74,512.33a5.5,5.5,0,1,1,4-9.23,5.71,5.71,0,0,1,1.33,3.73A5.26,5.26,0,0,1,1354.74,512.33Zm0-8a2.5,2.5,0,0,0,0,5,2.19,2.19,0,0,0,1.76-.72,2.74,2.74,0,0,0,.61-1.78A2.35,2.35,0,0,0,1354.74,504.33Z" transform="translate(0 0.47)"/><path class="cls-3" d="M1372,388.83c4.5,0,4.51-7,0-7s-4.51,7,0,7Z" transform="translate(0 0.47)"/><path class="cls-3" d="M1372,390.33a5,5,0,1,1,4.88-5A4.78,4.78,0,0,1,1372,390.33Zm0-7a2,2,0,1,0,1.88,2A1.88,1.88,0,0,0,1372,383.33Z" transform="translate(0 0.47)"/><path class="cls-3" d="M1256.33,288.61c4.51,0,4.52-7,0-7s-4.51,7,0,7Z" transform="translate(0 0.47)"/><path class="cls-3" d="M1256.33,290.11a5,5,0,1,1,4.88-5A4.79,4.79,0,0,1,1256.33,290.11Zm0-7a2,2,0,1,0,1.88,2A1.88,1.88,0,0,0,1256.33,283.11Z" transform="translate(0 0.47)"/><path class="cls-3" d="M1564.78,292.81c4.5,0,4.51-7,0-7s-4.51,7,0,7Z" transform="translate(0 0.47)"/><path class="cls-3" d="M1564.78,294.31a5,5,0,1,1,4.88-5A4.78,4.78,0,0,1,1564.78,294.31Zm0-7a2,2,0,1,0,1.88,2A1.87,1.87,0,0,0,1564.78,287.31Z" transform="translate(0 0.47)"/><path class="cls-3" d="M1471.78,458.62c4.5,0,4.51-7,0-7s-4.51,7,0,7Z" transform="translate(0 0.47)"/><path class="cls-3" d="M1471.78,460.12a5,5,0,1,1,4.88-5A4.78,4.78,0,0,1,1471.78,460.12Zm0-7a2,2,0,1,0,1.88,2A1.88,1.88,0,0,0,1471.78,453.12Z" transform="translate(0 0.47)"/><path class="cls-3" d="M1560,528.5c4.5,0,4.51-7,0-7s-4.51,7,0,7Z" transform="translate(0 0.47)"/><path class="cls-3" d="M1560,530a5,5,0,1,1,4.88-5A4.78,4.78,0,0,1,1560,530Zm0-7a2,2,0,1,0,1.88,2A1.87,1.87,0,0,0,1560,523Z" transform="translate(0 0.47)"/><path class="cls-3" d="M1535.86,671.33c4.51,0,4.51-7,0-7s-4.51,7,0,7Z" transform="translate(0 0.47)"/><path class="cls-3" d="M1535.86,672.83a5,5,0,1,1,4.88-5A4.79,4.79,0,0,1,1535.86,672.83Zm0-7a2,2,0,1,0,1.88,2A1.87,1.87,0,0,0,1535.86,665.83Z" transform="translate(0 0.47)"/><path class="cls-3" d="M1629.86,590c4.51,0,4.51-7,0-7s-4.51,7,0,7Z" transform="translate(0 0.47)"/><path class="cls-3" d="M1629.86,591.5a5,5,0,1,1,4.88-5A4.79,4.79,0,0,1,1629.86,591.5Zm0-7a2,2,0,1,0,1.88,2A1.87,1.87,0,0,0,1629.86,584.5Z" transform="translate(0 0.47)"/><path class="cls-3" d="M1667.53,713.5c4.5,0,4.51-7,0-7s-4.51,7,0,7Z" transform="translate(0 0.47)"/><path class="cls-3" d="M1667.53,715a5,5,0,1,1,4.88-5A4.78,4.78,0,0,1,1667.53,715Zm0-7a2,2,0,1,0,1.88,2A1.87,1.87,0,0,0,1667.53,708Z" transform="translate(0 0.47)"/><path class="cls-3" d="M1848,688c4.5,0,4.51-7,0-7s-4.51,7,0,7Z" transform="translate(0 0.47)"/><path class="cls-3" d="M1848,689.5a5,5,0,1,1,4.88-5A4.78,4.78,0,0,1,1848,689.5Zm0-7a2,2,0,1,0,1.88,2A1.87,1.87,0,0,0,1848,682.5Z" transform="translate(0 0.47)"/><path class="cls-3" d="M1817.53,799c4.5,0,4.51-7,0-7s-4.51,7,0,7Z" transform="translate(0 0.47)"/><path class="cls-3" d="M1817.53,800.5a5,5,0,1,1,4.88-5A4.78,4.78,0,0,1,1817.53,800.5Zm0-7a2,2,0,1,0,1.88,2A1.87,1.87,0,0,0,1817.53,793.5Z" transform="translate(0 0.47)"/><path class="cls-3" d="M1897,829.5c4.5,0,4.51-7,0-7s-4.51,7,0,7Z" transform="translate(0 0.47)"/><path class="cls-3" d="M1897,831a5,5,0,1,1,4.88-5A4.78,4.78,0,0,1,1897,831Zm0-7a2,2,0,1,0,1.88,2A1.87,1.87,0,0,0,1897,824Z" transform="translate(0 0.47)"/><path class="cls-3" d="M1763.53,941.5c4.5,0,4.51-7,0-7s-4.51,7,0,7Z" transform="translate(0 0.47)"/><path class="cls-3" d="M1763.53,943a5,5,0,1,1,4.88-5A4.78,4.78,0,0,1,1763.53,943Zm0-7a2,2,0,1,0,1.88,2A1.87,1.87,0,0,0,1763.53,936Z" transform="translate(0 0.47)"/><path class="cls-3" d="M1898.53,1006.5c4.5,0,4.51-7,0-7s-4.51,7,0,7Z" transform="translate(0 0.47)"/><path class="cls-3" d="M1898.53,1008a5,5,0,1,1,4.88-5A4.78,4.78,0,0,1,1898.53,1008Zm0-7a2,2,0,1,0,1.88,2A1.87,1.87,0,0,0,1898.53,1001Z" transform="translate(0 0.47)"/><path class="cls-3" d="M1846.53,924c2.57,0,2.58-4,0-4s-2.58,4,0,4Z" transform="translate(0 0.47)"/><path class="cls-3" d="M1846.53,925.5a3.38,3.38,0,0,1-3.43-3.5,3.61,3.61,0,0,1,.84-2.35,3.45,3.45,0,0,1,6,2.35,3.61,3.61,0,0,1-.84,2.35A3.36,3.36,0,0,1,1846.53,925.5Zm0-4c-.22,0-.29.07-.31.1a.62.62,0,0,0-.12.4c0,.5.3.5.43.5s.43,0,.43-.5S1846.66,921.5,1846.53,921.5Z" transform="translate(0 0.47)"/><path class="cls-3" d="M858.53,257.5c4.5,0,4.51-7,0-7s-4.51,7,0,7Z" transform="translate(0 0.47)"/><path class="cls-3" d="M858.53,259a5,5,0,1,1,4.88-5A4.78,4.78,0,0,1,858.53,259Zm0-7a2,2,0,1,0,1.88,2A1.87,1.87,0,0,0,858.53,252Z" transform="translate(0 0.47)"/><path class="cls-3" d="M990,104.33c3.86,0,3.87-6,0-6s-3.86,6,0,6Z" transform="translate(0 0.47)"/><path class="cls-3" d="M990,105.83a4.5,4.5,0,0,1,0-9,4.26,4.26,0,0,1,3.31,1.46,4.68,4.68,0,0,1,1.09,3A4.31,4.31,0,0,1,990,105.83Zm0-6a1.39,1.39,0,0,0-1.4,1.51,1.68,1.68,0,0,0,.37,1.08,1.27,1.27,0,0,0,1,.41,1.5,1.5,0,0,0,0-3Z" transform="translate(0 0.47)"/><path class="cls-3" d="M962.86,20.67c5.79,0,5.8-9,0-9s-5.8,9,0,9Z" transform="translate(0 0.47)"/><path class="cls-3" d="M962.86,22.17a5.74,5.74,0,0,1-5.85-6,5.74,5.74,0,0,1,5.85-6,5.69,5.69,0,0,1,4.4,1.92,6.27,6.27,0,0,1,1.45,4.07A5.75,5.75,0,0,1,962.86,22.17Zm0-9a2.76,2.76,0,0,0-2.85,3,3.25,3.25,0,0,0,.73,2.11,2.65,2.65,0,0,0,2.12.89,2.76,2.76,0,0,0,2.85-3A2.75,2.75,0,0,0,962.86,13.17Z" transform="translate(0 0.47)"/><path class="cls-3" d="M1123.86,180.06c4.51,0,4.51-7,0-7s-4.51,7,0,7Z" transform="translate(0 0.47)"/><path class="cls-3" d="M1123.86,181.56a5,5,0,1,1,4.88-5A4.79,4.79,0,0,1,1123.86,181.56Zm0-7a2,2,0,1,0,1.88,2A1.87,1.87,0,0,0,1123.86,174.56Z" transform="translate(0 0.47)"/><path class="cls-3" d="M1178.75,229.17c4.5,0,4.51-7,0-7s-4.51,7,0,7Z" transform="translate(0 0.47)"/><path class="cls-3" d="M1178.75,230.67a5,5,0,0,1,0-10,4.74,4.74,0,0,1,3.67,1.61,5.18,5.18,0,0,1,1.21,3.38A4.8,4.8,0,0,1,1178.75,230.67Zm0-7a2,2,0,1,0,1.88,2A1.84,1.84,0,0,0,1178.75,223.67Z" transform="translate(0 0.47)"/><path class="cls-3" d="M1189.68,89.22c4.51,0,4.52-7,0-7s-4.51,7,0,7Z" transform="translate(0 0.47)"/><path class="cls-3" d="M1189.68,90.72a5,5,0,1,1,4.89-5A4.79,4.79,0,0,1,1189.68,90.72Zm0-7a2,2,0,1,0,1.89,2A1.88,1.88,0,0,0,1189.68,83.72Z" transform="translate(0 0.47)"/><path class="cls-3" d="M1552.47,213.19c4.51,0,4.51-7,0-7s-4.51,7,0,7Z" transform="translate(0 0.47)"/><path class="cls-3" d="M1552.47,214.69a5,5,0,1,1,3.68-8.38,5.23,5.23,0,0,1,1.2,3.38A4.78,4.78,0,0,1,1552.47,214.69Zm0-7a2,2,0,1,0,1.88,2A1.85,1.85,0,0,0,1552.47,207.69Z" transform="translate(0 0.47)"/><path class="cls-3" d="M1580.3,194.65c4.5,0,4.51-7,0-7s-4.51,7,0,7Z" transform="translate(0 0.47)"/><path class="cls-3" d="M1580.3,196.15a5,5,0,1,1,4.88-5A4.79,4.79,0,0,1,1580.3,196.15Zm0-7a2,2,0,1,0,1.88,2A1.87,1.87,0,0,0,1580.3,189.15Z" transform="translate(0 0.47)"/><path class="cls-3" d="M1549.53,21.5c5.15,0,5.15-8,0-8s-5.16,8,0,8Z" transform="translate(0 0.47)"/><path class="cls-3" d="M1549.53,23a5.23,5.23,0,0,1-4-1.77,5.74,5.74,0,0,1-1.33-3.73,5.37,5.37,0,1,1,10.73,0A5.26,5.26,0,0,1,1549.53,23Zm0-8a2.21,2.21,0,0,0-1.76.73,2.71,2.71,0,0,0-.61,1.77,2.37,2.37,0,1,0,4.73,0A2.34,2.34,0,0,0,1549.53,15Z" transform="translate(0 0.47)"/><path class="cls-3" d="M1641.69,194.5c5.15,0,5.16-8,0-8s-5.15,8,0,8Z" transform="translate(0 0.47)"/><path class="cls-3" d="M1641.69,196a5.26,5.26,0,0,1-5.36-5.5,5.71,5.71,0,0,1,1.33-3.73,5.21,5.21,0,0,1,4-1.77,5.27,5.27,0,0,1,5.37,5.5,5.71,5.71,0,0,1-1.33,3.73A5.21,5.21,0,0,1,1641.69,196Zm0-8a2.5,2.5,0,1,0,2.37,2.5A2.35,2.35,0,0,0,1641.69,188Z" transform="translate(0 0.47)"/><path class="cls-3" d="M1665.09,221.75c4.5,0,4.51-7,0-7s-4.51,7,0,7Z" transform="translate(0 0.47)"/><path class="cls-3" d="M1665.09,223.25a5,5,0,1,1,4.88-5A4.79,4.79,0,0,1,1665.09,223.25Zm0-7a2,2,0,1,0,1.88,2A1.87,1.87,0,0,0,1665.09,216.25Z" transform="translate(0 0.47)"/><path class="cls-3" d="M1750.53,343.5c4.5,0,4.51-7,0-7s-4.51,7,0,7Z" transform="translate(0 0.47)"/><path class="cls-3" d="M1750.53,345a5,5,0,1,1,4.88-5A4.78,4.78,0,0,1,1750.53,345Zm0-7a2,2,0,1,0,1.88,2A1.87,1.87,0,0,0,1750.53,338Z" transform="translate(0 0.47)"/><path class="cls-3" d="M1784.36,179.5c4.51,0,4.51-7,0-7s-4.51,7,0,7Z" transform="translate(0 0.47)"/><path class="cls-3" d="M1784.36,181a5,5,0,1,1,4.88-5A4.79,4.79,0,0,1,1784.36,181Zm0-7a2,2,0,1,0,1.88,2A1.87,1.87,0,0,0,1784.36,174Z" transform="translate(0 0.47)"/><path class="cls-3" d="M1896,280.5c4.5,0,4.51-7,0-7s-4.51,7,0,7Z" transform="translate(0 0.47)"/><path class="cls-3" d="M1896,282a5,5,0,1,1,4.88-5A4.78,4.78,0,0,1,1896,282Zm0-7a2,2,0,1,0,1.88,2A1.87,1.87,0,0,0,1896,275Z" transform="translate(0 0.47)"/><path class="cls-3" d="M1785,35.5c4.5,0,4.51-7,0-7s-4.51,7,0,7Z" transform="translate(0 0.47)"/><path class="cls-3" d="M1785,37a4.78,4.78,0,0,1-4.88-5,4.88,4.88,0,1,1,9.76,0A4.79,4.79,0,0,1,1785,37Zm0-7a2,2,0,1,0,1.88,2A1.87,1.87,0,0,0,1785,30Z" transform="translate(0 0.47)"/><path class="cls-3" d="M1891.31,95.06c4.5,0,4.51-7,0-7s-4.52,7,0,7Z" transform="translate(0 0.47)"/><path class="cls-3" d="M1891.31,96.56a5,5,0,1,1,4.88-5A4.79,4.79,0,0,1,1891.31,96.56Zm0-7a2,2,0,1,0,1.88,2A1.87,1.87,0,0,0,1891.31,89.56Z" transform="translate(0 0.47)"/></svg>