<?xml version="1.0" standalone="no"?>
<!DOCTYPE svg PUBLIC "-//W3C//DTD SVG 20010904//EN"
 "http://www.w3.org/TR/2001/REC-SVG-20010904/DTD/svg10.dtd">
<svg version="1.0" xmlns="http://www.w3.org/2000/svg"
 width="512.000000pt" height="512.000000pt" viewBox="0 0 512.000000 512.000000"
 preserveAspectRatio="xMidYMid meet">
<metadata>
Created by potrace 1.11, written by Peter Selinger 2001-2013
</metadata>
<g transform="translate(0.000000,512.000000) scale(0.100000,-0.100000)"
fill="#000000" stroke="none">
<path d="M2436 3557 c-66 -166 -123 -309 -127 -317 -4 -8 -40 -98 -80 -200
-39 -102 -78 -198 -85 -215 -7 -16 -52 -129 -99 -250 -47 -121 -92 -233 -99
-250 -7 -16 -19 -46 -26 -65 -8 -19 -15 -36 -16 -38 -1 -2 -89 29 -196 69
-106 39 -215 80 -243 90 -364 135 -463 175 -457 180 7 7 104 44 392 151 74 27
144 54 155 58 11 5 36 14 55 21 34 11 38 18 83 133 26 66 50 129 53 138 5 14
-7 12 -73 -13 -43 -16 -98 -38 -123 -49 -25 -10 -83 -33 -130 -50 -47 -18 -94
-36 -105 -40 -40 -17 -174 -70 -370 -145 -110 -43 -203 -80 -207 -84 -7 -6
-11 -90 -9 -198 1 -44 4 -53 19 -53 10 0 22 -4 28 -8 5 -5 43 -21 84 -37 41
-15 89 -33 105 -40 17 -8 109 -44 205 -81 488 -187 636 -246 643 -253 4 -4 -1
-27 -11 -52 -23 -52 -34 -80 -38 -94 -4 -15 -173 -436 -189 -470 -14 -31 -45
-122 -45 -131 0 -8 1651 2 1690 10 19 5 67 14 105 21 108 21 117 23 227 61
405 141 692 445 797 847 31 121 36 171 35 387 -1 198 -2 209 -33 325 -123 459
-459 780 -941 899 -58 14 -123 28 -145 30 -22 3 -60 8 -85 11 l-46 6 -69 -173
c-37 -95 -74 -187 -81 -204 l-13 -31 57 -2 c248 -9 507 -119 653 -277 293
-319 297 -891 9 -1210 -118 -130 -274 -217 -480 -265 -91 -22 -116 -23 -587
-25 l-492 -2 11 27 c6 14 18 46 28 71 23 61 294 745 335 845 30 75 41 103 44
115 0 3 16 41 35 85 21 50 39 79 47 77 29 -6 889 -327 889 -332 0 -3 -145 -59
-321 -125 l-321 -121 -54 -134 c-30 -73 -53 -135 -51 -136 1 -2 232 86 512
195 l510 198 0 117 c0 73 -3 121 -10 126 -6 5 -225 92 -486 193 -592 230 -594
231 -592 243 2 11 128 337 143 369 5 11 32 79 61 150 28 72 60 151 70 178 l19
47 -223 0 -222 0 -119 -303z"/>
</g>
</svg>
